<svg version="1.2" xmlns="http://www.w3.org/2000/svg" viewBox="0 0 141 143" width="139" height="141">
	<title>LamberJack_logo-1-svg</title>
	<defs>
		<clipPath clipPathUnits="userSpaceOnUse" id="cp1">
			<path d="m-137-339h595.28v841.89h-595.28z"/>
		</clipPath>
	</defs>
	<style>
		.s0 { fill: #225412 } 
		.s1 { fill: #a7a9ac } 
		.s2 { fill: #fff200 } 
		.s3 { fill: #e4e5e6 } 
		.s4 { fill: #d32538 } 
		.s5 { fill: none;stroke: #cf072c;stroke-width: .4 } 
		.s6 { fill: #f36f21 } 
		.s7 { fill: none;stroke: #f36f21;stroke-width: .4 } 
		.s8 { fill: #fdd1b0 } 
		.s9 { fill: #231f20 } 
		.s10 { fill: #ffc20d } 
		.s11 { fill: #211004 } 
		.s12 { fill: #f89f65 } 
	</style>
	<g id="Clip-Path" clip-path="url(#cp1)">
		<g id="Layer">
			<path id="Layer" class="s0" d="m151.4 21.8c3 0 1.8-0.2 3.2-0.2 1.3 0 1.7 1.3 0.6 1.9-0.4 0.2-0.8 0.2-0.8 0.7-0.1 0.3-0.2 2-0.2 2.8 0 1 0.1 2.1 0.1 3.2 0.1 3.6 0.1 7.2 0.1 10.8v14.1c0 3.1-0.2 4.2-0.2 6.1 0 2.5 1.2 3.2 2 3.2 1 0 3-0.8 3.8-4.4 0.3-1.6 0.8-3.2 2.7-3.2 0.5 0 1.4 0.1 1.4 0.8 0 0.8-0.2 1.7-0.5 2.9-0.4 1.9-0.5 3.7-0.7 6 0 0.8 0 1.2-1.1 1.2-1.5 0-1.5-0.6-2.5-1.1-0.6-0.3-1.5-0.3-3.1-0.3h-10.5c-0.4 0-0.9 0.1-1.4 0.1q-0.5 0.1-1.1 0.1c-1.5 0-1.5-1.2-0.9-1.8 0.6-0.5 1.3-0.2 1.3-3.4 0-3.4-0.2-5.3-0.2-8.1v-18.8c0-8.6 0.4-10-0.2-10.7-0.4-0.4-1.1-0.6-1.1-1.4 0-1.4 1.8-0.5 3.4-0.5z"/>
			<path id="Layer" class="s0" d="m174.8 21.8c0.8 0 1.7-0.2 2.4-0.2q0.7-0.1 1.3-0.1c0.5 0 1.3-0.1 1.3 0.8 0 0.9-0.7 1-1.3 1.7-0.6 0.7-0.2 1.5-0.2 4v19c0 6.8-0.2 5.5-0.3 7.7-0.2 2.8 0 6.7 3.5 6.7 4 0 3.8-5.6 3.8-10.3v-20.8c0-3.2 0.4-4.7-0.7-6.1-0.8-0.9-1.5-0.8-1.5-1.8 0-1.4 1.9-0.6 2.9-0.6h2.1c1.4 0 4.3-0.7 2.5 1.3-0.6 0.7-1.8 1.6-1.8 4v24.6c0 8.8 0 15.4-10.7 15.4-9.8 0-10.7-6.7-10.7-11.6v-29.6c0-0.7 0-1.7-0.6-2.3-0.4-0.3-0.8-0.5-0.8-1.2 0-0.3 0.4-0.9 1.4-0.9 1.4 0 0.5 0.3 2.8 0.3z"/>
			<path id="Layer" class="s0" d="m195.4 35.7c0-7.3 0.1-8.7 0.1-10.4 0-0.6-0.1-1.1-0.8-1.6-0.3-0.2-0.7-0.3-0.7-1.3 0-0.5 0.2-0.8 1.1-0.8 0.6 0 1.1 0.2 1.6 0.2 0.6 0 1.1-0.2 1.7-0.2 1.5 0 2.2 1.2 4.1 3.4 1.1 1.1 2.1 2.3 3 3.7 0.6 0.9 1.2 1.8 1.9 2.6 1.2 1.3 2.3 1.4 2.8 1.4 1.7 0 2.7-1.7 3.5-3 0.4-0.8 4.1-6.2 5.1-7.2 1.4-1.4 2.3-0.9 3.4-0.8 0.6 0 1.2-0.2 1.9-0.2 0.9 0 0.9 0.5 0.9 0.8 0 0.3-0.5 0.7-0.7 0.8-0.4 0.4-0.7 0.6-0.7 1.7-0.2 2.5 0.2 2.3 0.2 19 0 3.5 0 13.1-0.2 18.6 0 1.8 0.5 1.6 1 2 0.7 0.5 1.1 2.2-0.7 2.2-1 0-1.7-0.3-2.9-0.3h-5.3c-2.1 0-2 0.2-2.9 0.2-1.6 0-1.7-1.3-0.9-2.1 0.6-0.4 1-0.2 1-2.1v-16.9c0-2.6 0.8-5 1-5.9 0.8-2.5-0.8-3-1.6-3-1.2 0-2.2 1.9-2.6 2.6-1.7 3-3 5.8-4 5.8-0.8 0-3.2-2.6-3.5-3.1-0.5-0.6-1.1-1.6-2.3-1.6-1.8 0-1 2.9-1 5.6v13.5c0 1.6-0.7 3.4 1.2 4.4 0.7 0.3 1.9 0.5 1.9 1.7 0 1.7-1.8 1-4 0.9h-1.5c-1.3-0.1-3 0.7-3-0.6 0-0.4 0.2-0.9 0.5-1.3 1-1.1 1.4-0.4 1.4-6.7z"/>
			<path id="Layer" fill-rule="evenodd" class="s0" d="m238 21.8c2.4 0 0.9-0.3 5.2-0.3 8.9 0 12.5 4.9 12.5 9.5 0 3.2-2 5.9-3.9 7.1-1.3 0.7-3.3 1-3.3 2.2 0 0.8 0.9 1.1 1.5 1.2 5.2 1.4 6.4 6.7 6.4 10.9 0 6.7-2 11.7-8.7 13.7-3.9 1.1-5.7 0.2-9.3 0.2h-6.2c-0.7 0-1.3 0.1-2 0.2q-0.5 0.1-1 0.1c-0.4 0-1.4-0.1-1.4-0.8 0-0.5 0.1-0.9 0.6-1.3 0.4-0.1 0.7-0.2 0.8-0.8 0-0.3 0.1-2 0.1-2.1v-36.4c0-0.5 0.1-1.1-0.6-1.5-0.4-0.3-0.9-0.4-0.9-1.3 0-0.3 0.4-0.9 1.5-0.9 1.1 0 1.4 0.3 2.6 0.3zm2.2 12c0 0.6-0.1 1.2-0.1 1.7-0.2 0.7-0.3 1.4-0.3 2.1 0 1.3 0.6 1.6 1.5 1.6 2.2 0 3.5-1.3 3.5-7.5 0-4.5-0.4-8.2-3.8-8.2-0.6 0-1.5 0.3-1.5 1.7 0 0.6 0.3 1.1 0.4 1.6 0.2 0.9 0.3 1.7 0.3 2.6zm4.6 16.5c0-8.2-1.5-9-3.3-9-2.3 0-2.2 1-1.6 4.2 0.4 2.6 0.4 7.6 0 12.2-0.3 2.5-0.4 3.6-0.4 4.8 0 0.8 0.1 1.9 1.7 1.9 3.3 0 3.6-6.4 3.6-10.6z"/>
			<path id="Layer" class="s0" d="m276.3 21.4c0.5-0.2 0.9-0.2 1.4-0.2 1.2 0 1.5 0.2 1.7 1.8 0 0.9 0.1 1.4 0.3 2.2 0.2 1.2 0.7 2.4 0.7 3.7 0 0.6 0.2 1.7-1.5 1.7-2.1 0-2.1-2-2.5-3.3-0.6-1.9-2.2-3.6-3.7-3.6-2.5 0-1.6 2.6-1.6 4.3v8.2c0 0.9 0 3.5 2.5 3.5 0.9 0 1.4-0.5 1.6-1 0.4-0.8 0-1.3 1.8-1.3 0.8 0 1.5 0 1.9 1.9 0.5 3 1.7 3.8 1.7 4.9 0 0.8-0.3 1.9-1.8 1.9-1.8 0-2-1.9-2.6-3-0.6-1-1.3-1.6-2.6-1.6-3.1 0-2.5 3.2-2.5 4.9v12c0 2.4-1.1 6 2.1 6 1.3 0 2.8-1 3.5-3.5 0.5-1.9 0.9-4.1 3-4.1 0.6 0 2 0.3 1.3 2.7-0.8 2.4-1.1 3.5-1 6.1 0 1.4-0.2 1.6-1.2 1.6-1.5 0-1.7-0.4-2.5-0.7-0.9-0.4-1.9-0.2-3-0.2h-10.7c-1.8 0-3.6 0.8-3.6-1 0-0.9 0.8-0.9 1.1-1.5 0.5-0.6 0.1-1.7 0.1-6v-31c0-1 0.1-2.6-0.2-3.3-0.3-0.6-0.9-0.2-0.9-1.1 0-0.8 0.8-0.9 1.4-0.9 0.5 0 0.9 0.1 1.5 0.1 1 0.2 2.1 0.2 3.8 0.2h9.2c0.5 0 0.9-0.3 1.3-0.4z"/>
			<path id="Layer" fill-rule="evenodd" class="s0" d="m292.6 21.8c3.8 0 3.3-0.4 5.9-0.4 1.2 0 4.7 0.2 7.8 2.1 4.8 2.9 6.6 8.5 6.6 13.4 0 5.2-2.2 9.3-5.3 10.9-1.2 0.6-2.8 0.9-2.8 2 0 1.3 2 1.4 3.2 1.9 2 0.7 3.7 2.7 3.7 6.9 0 1.7-0.1 1.1-0.1 3.6 0 1.1 0.2 1.3 0.8 1.9 0.4 0.4 0.7 0.8 0.7 1.5 0 0.5-0.4 1.1-1.4 1.1-0.4 0-0.8-0.1-1.2-0.3q-0.7-0.1-1.6-0.1h-2.9c-1.4 0-1.4 0.3-2.4 0.3-2.3 0-2.9-3.9-2.9-6.6 0-1.7 0.3-3.1 0.3-4.5 0-2.3-1.4-4.7-3.2-4.7-1 0-1.5 0.6-1.5 1.1 0 0.7 0.1 1.7 0.1 3.5v5.3c0 1.2-0.2 2.6 0.5 3.3 0.4 0.4 0.9 0.4 0.9 1.4 0 1-0.9 1.1-1.5 1.1-1.7 0-1.7-0.2-3.8-0.2h-5.3c-1.7 0-3.5 0.7-3.5-0.8 0-0.9 0.5-1.2 0.9-1.5 1.3-1 0.9-1.9 0.9-6v-28.4c0-3.4 0.4-5.1-0.3-5.9-0.2-0.3-1-0.7-1-1.3 0-1.5 2-0.6 3.6-0.6zm8.3 10.5c0-7.7-1.1-9-3.3-9-2.4 0-2 1.9-1.8 2.8 0.6 1.8 0.6 2.8 0.6 4.9v11.6c0 1.4 0 1.9-0.4 3.5-0.2 0.6-0.7 2.9 1.7 2.9 2.9 0 3.2-3.5 3.2-5.5z"/>
			<path id="Layer" class="s0" d="m153.6 76.5c1.4 0 2-0.4 3.5-0.4 0.6 0 1.3 0.1 1.3 1 0 0.9-0.8 0.6-1.3 1.2-0.5 0.6-0.1 1.5-0.1 3.9v20.4c0 3.3 0 10.1-0.2 13.3-0.1 2.9-0.3 4.1-2.8 6.8-2.3 2.6-6.6 6.7-10.4 6.7-2.1 0-3-1.2-3-2.2 0-1.8 1.2-2.8 2.4-2.8 0.9 0 1.6 0.5 2.5 0.5 0.4 0 1.3-0.4 1.3-1.9 0-1.4-0.3-1.4-0.5-5.8-0.2-3.2-0.2-12-0.2-14.6v-18.9c0-1.2 0-2.4 0.1-3.5 0-0.3 0-0.7 0-1.1 0-1.1-0.4-1-0.7-1.3-0.8-0.6-0.6-1.7 0.7-1.7 0.5 0 1 0.1 1.6 0.2 0.5 0.1 1.2 0.2 1.7 0.2z"/>
			<path id="Layer" fill-rule="evenodd" class="s0" d="m180 120.9q-1.1 0-2.3 0.2c-0.6 0.1-1.2 0.3-1.9 0.3-0.7 0-1.4-0.2-1.4-1 0-0.7 0.3-1.1 0.9-1.4 0.8-0.4 1.3-0.4 1.5-1.9q0.1-0.7 0-1.4c-0.4-3.6-4.5-4-5.6-4-4 0-4.5 2.9-4.5 4.5 0 2.2 1.1 2.6 1.8 2.9 1.2 0.5 0.8 1.3 0.8 1.8 0 0.4-0.7 0.4-1 0.4-0.7 0-1.2-0.1-1.8-0.2-0.7-0.1-1.4-0.2-2-0.2-0.9 0-1.8 0.2-2.8 0.2-0.4 0-1.4-0.1-1.4-1 0-1.6 1.4-0.8 2.2-2 0.8-1 0.8-2.8 1.3-6.2 2.4-18.2 4.7-22.9 5.7-27.3 1-4.4-0.2-4.9-1.3-5.4-1.1-0.5-1.1-1.2-1.1-1.6 0-0.4 0.3-1.2 1.7-1.2 1.1 0 2.2 0.2 3.3 0.2q0.8 0 1.6-0.1c1.4-0.2 3.1-0.6 4.9-0.6 1.3 0 1.9 0.2 2.5 1.7 2.5 6 5.3 30.2 5.8 34.8 0.2 2.5 0.3 5.4 1.7 6.3 0.4 0.3 1.4 0.6 1.4 1.4 0 0.5-0.4 1.2-1.6 1.2-0.6 0-1.1-0.2-1.7-0.2-1-0.2-2.1-0.2-3.2-0.2zm-7.1-11c2.7 0 2.8-2.1 2.8-3.1 0-2.8-0.6-5.1-1.2-8.2-0.8-3.9-0.6-4.3-0.6-5.9 0-0.5-0.1-1.9-1.5-1.9-2.9 0-4.2 13.6-4.2 15.7 0 3.4 2.3 3.4 3.4 3.4z"/>
			<path id="Layer" class="s0" d="m204.5 114.6c0 2.5-0.5 5 2.7 5 1.5 0 2.3-1.5 2.3-3.1 0-0.6-0.2-1.1-0.2-1.7 0-1.2 0.8-2.8 2.6-2.8 0.8 0 2.1 0.5 2.1 2.6 0 2.6-3.6 6.8-8.1 6.8-6.6 0-13.4-7.8-13.4-24.3 0-14.6 6.1-22.1 11.4-22.1 0.8 0 1.6 0.2 2.4 0.5 0.8 0.3 1.5 0.7 2.3 0.7 1.4 0 1-1.5 2.2-1.5 2.4 0 1.8 0.5 2.3 2.7 0.5 2.1 1.4 4.2 1.4 6.5 0 2.6-1.1 3.3-1.7 3.3-2.3 0-1.8-2.1-2.6-4.6-1.2-4-3-5.4-4.4-5.4-0.9 0-1.4 0.7-1.5 1.1-0.2 0.4-0.1 0.9 0 1.3 0.1 1 0.2 1.3 0.2 2.8 0 10.8 0 16.6 0 20.4 0 2.9 0 5.8 0 8.7z"/>
			<path id="Layer" class="s0" d="m227 76.5c0.4 0 0.8-0.1 1.3-0.1 0.3-0.1 0.7-0.2 1.2-0.2 0.3 0 1.3 0 1.3 0.9 0 0.6-0.4 0.8-0.7 1-0.9 0.7-0.5 1.8-0.5 2.9v5.6c0 0.7-0.4 2.1-0.1 2.9 0.3 0.8 1.2 1 1.7 1 0.7 0 1.4-0.3 1.9-0.7 2.8-1.7 3.6-4 4.3-7.1 0.6-2.8 1.8-7.1 6.2-7.1 1.7 0 3.6 1 3.6 3.8 0 2.3-1.7 3.4-3.2 3.4-1 0-1.6-0.8-2.3-0.8-1.3 0-3.6 2.2-0.8 7.4 2 3.9 4.2 8.4 5.1 19.7 0.3 4.7 0.2 6.6 0.5 8.6 0.2 1.4 0.7 1.1 1.2 1.5 0.6 0.3 0.6 1.4 0 1.7-0.6 0.5-2.2 0-3.4 0h-5.5c-0.6 0-1.1 0.1-1.7 0.2-0.6 0-1.1 0.1-1.7 0.1-1.3 0-1.7-1.2-1-1.9 0.5-0.5 0.8-0.3 0.8-1.7 0-5.3-0.8-18.3-2-22.6-0.3-1.2-0.9-2.6-2.5-2.6-1 0-1.6 0.7-1.6 1.5 0 0.5 0.2 0.9 0.3 1.4 0.2 0.7 0.2 1.6 0.2 2.3v19.6c0 1.6 0.3 1.3 0.9 1.8 0.7 0.5 1 2.1-0.8 2.1-1.8 0-1.2-0.2-2.6-0.2h-6.2c-1.5 0-1.8 0.3-2.7 0.3-1.4 0-1.4-1.5-0.7-2 0.5-0.5 1.1-0.2 1.3-2.1 0.2-2.1-0.1-3.3-0.1-19.3 0-2.6 0-5.2 0-7.9v-3.4c0-4.4 0.3-5.1 0.2-6.8-0.2-2.2-1.4-1.8-1.4-2.5 0-1.3 2.1-0.7 3.3-0.7z"/>
			<path id="Layer" fill-rule="evenodd" class="s1" d="m68.8 136.2c-2.1 0-4.3-0.1-6.4-0.3-0.4-0.1-0.8-0.2-1.2-0.2q-0.9-0.1-1.7-0.2-1.6-0.2-3.3-0.5-3.3-0.4-6.5-1.1-3.1-0.7-6-1.8c-0.7-0.3-1.4-0.7-2.1-0.9-0.8-0.2-1.6-0.6-2.4-0.9-0.6-0.3-1.3-0.7-1.9-1-1.4-0.7-2.8-1.4-4.1-2.4-0.3-0.2-0.4-0.5-0.7-0.8-0.3-0.4-0.6-0.7-0.7-1.2-0.1-0.1-0.5-1.2-0.3-1.3-0.4 0.2-0.8 0.2-1.2 0.3-0.4 0-0.8 0.1-1.2 0.1-2.1 0.1-4.3-0.2-6.3-0.8-1.4-0.5-2.9-1.5-3.4-3q0-0.2-0.1-0.4v-0.2c0-0.2 0-0.4 0-0.8v-0.1l0.1-0.2q-0.5 0-0.8-0.2c-0.1 0-0.3-0.1-0.4-0.1-0.3-0.1-0.6-0.2-1-0.4l-0.1-0.1-0.2-0.1c-0.4-0.3-1.1-0.8-1.5-1.8l-0.1-0.2c-0.2-0.9 0.1-1.7 0.1-2.6q0-1.4-0.2-2.7c-0.2-1.8-0.8-3.5-1.7-5-0.5-0.9-1.1-1.8-1.4-2.9v-0.1c-0.2-0.8-0.2-1.9 0-2.7q0.4-1.5 1.3-2.5h0.1c0.2-0.4 0.4-0.6 0.6-0.7l0.1-0.1c1.1-0.9 2.3-1.6 3.6-2.1 0.2-0.1 0.8-0.2 0.9-0.4 0.1-0.2-0.3-0.7-0.3-0.9q-0.5-1-0.8-2.1-0.3-0.8-0.5-1.6-0.1-0.4-0.2-0.8c0-0.1 0-0.5-0.2-0.6q-0.4-0.2-0.7-0.5c-0.2-0.1-0.7-0.6-0.9-1.4q-0.1-0.5 0.1-1c0.1-0.2 0.5-0.5 0.5-0.7 0.1-0.2-0.1-0.5-0.1-0.7q0-0.3-0.1-0.6-0.1-0.6-0.2-1.2-0.1-0.6-0.2-1.2c-0.1-0.3-0.1-0.7-0.2-1q-0.1-0.7-0.2-1.5-0.2-1.5-0.3-3-0.1-1.3 0-2.6c0-0.4 0-0.7 0-1.1 0.1-0.4 0-0.8 0-1.2 0.1-1.3 0.2-2.7 0.3-4 0.2-1 0.2-2 0.3-3q0.2-1.6 0.5-3.2c0.2-1.2 0.5-2.3 0.8-3.4q0.3-1.2 0.7-2.3 0.7-2.3 1.7-4.5 0.9-2.3 2-4.4c0.7-1.4 1.3-2.8 2.2-4.1 0.3-0.3 0.7-0.8 0.9-1.2 0.2-0.4-0.1-0.8-0.1-1.2-0.2-0.8-0.2-1.7-0.1-2.5 0.2-1.2 0.8-2.4 1.8-3.2 0.8-0.7 2.1-1.1 3.2-0.9 0.3 0.1 0.3 0 0.4-0.2q0.1-0.4 0.3-0.7 0.3-0.8 0.6-1.6v-0.1q0.5-1.4 1-2.8c0.5-1.5 0.9-3.1 1.1-4.7 0.5-3.6 0.4-7.3-0.7-10.7-0.1-0.5-0.3-1.1-0.6-1.7-0.2-0.4-0.3-0.9-0.1-1.4 0.3-0.8 1.1-1.3 3.4-2.3 1.2-0.4 2.5-0.9 2.9-1q1-0.3 2.1-0.4 1.2-0.2 2.4-0.2c3.4 0 7 0.9 10.3 2.6q2.9 1.5 4.9 3.7 1.1 1.2 1.9 2.6 0.2 0.5 0.5 0.9c0.1 0.2 0.2 0.8 0.3 0.9 0.2 0.1 0.7-0.1 0.9-0.1q0.5-0.1 1-0.2c0.4-0.1 0.8-0.1 1.2-0.3 0.3-0.1 0.6-0.7 0.8-0.9q0.5-0.6 1-1c0.8-0.6 1.7-1 2.6-1.3 1.7-0.6 3.4-0.7 5.1-0.8 1.8-0.1 3.5-0.1 5.2-0.4 0.8-0.1 1.2-0.6 1.5-1.3 0.3-0.6 0.6-1.1 1.3-1.3q0.3-0.1 0.5-0.1c1 0 1.6 0.7 1.9 1.1q0.1-0.6 0.6-1c0.3-0.2 0.6-0.3 1-0.3 0.7 0 1.4 0.5 1.9 0.9 1 0.8 1.8 1.9 2.3 3q0.3 0 0.5 0h0.2c0.5 0 0.9 0.2 1.1 0.6 0.3 0.3 0.6 0.5 0.8 0.8q0.3 0.7 0.6 1.5 0.6 1.5 0.7 3.1c2.7 1 5.3 2.2 7.9 3.5q1.7 0.9 3.4 2c1.1 0.7 2.1 1.5 3.2 2.1q1.4 0.9 2.6 2c0.9 0.8 1.8 1.5 2.7 2.3 1.7 1.7 3.6 3.3 5 5.3 0.9 1.3 1.9 2.6 2.8 3.9 1.1 1.5 2.1 3.1 3 4.8 2.9 5 5 10.5 6.3 16.1q0.6 2.8 0.9 5.6c0.3 1.9 0.3 3.8 0.5 5.7q0.1 1.1 0 2.2c0 0.7 0.4 1.4 0.5 2 0.4 1.2 0.6 2.2 0.5 3.5-0.1 1.2-0.6 2.3-1.1 3.1q-0.1 0.2-0.3 0.5c-0.2 0.4-0.5 0.8-0.7 1.1-0.2 0.4-0.3 1-0.4 1.5q-0.4 1.6-0.8 3.3-0.5 1.4-0.9 2.8c-0.4 1-0.9 2-1.1 3-0.1 0.4 0.1 0.5 0.5 0.6q0.7 0.3 1.4 0.6c2.1 1.1 3.6 2.4 4.5 4.7 0.2 0.5 0.3 0.9 0.3 1.5q0 1-0.2 1.8c-0.3 1-0.8 1.8-1.3 2.6-1.4 2.1-2 4.6-2 7.1q-0.1 1 0 1.9c0.1 0.6 0.3 1.1 0.1 1.7-0.7 1.6-2.4 2-3.9 2.5l-0.1 0.1c-0.1 0.1-0.1 0.3-0.1 0.4 0.5 3.4-3.4 5-6.1 5.2-1.3 0.1-2.7-0.1-4-0.3-0.6-0.1-1.2-0.2-1.7-0.3h-0.2c-0.1 0-0.1 0.2-0.1 0.2 0 2.1-1.9 3.4-3.6 4.3q-0.4 0.2-0.8 0.4c-3.2 1.8-6.7 3.2-10.3 4.3-4.1 1.1-8.2 2.1-12.4 2.7-4.3 0.7-8.6 0.8-12.9 0.8q-2.2 0-4.3 0z"/>
			<path id="Layer" fill-rule="evenodd" class="s2" d="m126.9 71.7c0 30.1-24.3 54.4-54.4 54.4-30 0-54.4-24.3-54.4-54.4 0-30.1 24.4-54.4 54.4-54.4 30.1 0 54.4 24.3 54.4 54.4z"/>
			<path id="Layer" class="s3" d="m128.6 78.1c-0.6 2-1.6 4-3 5.6-0.5 0.5-1.2 1.1-1.9 0.8-0.3-0.2-0.5-0.5-0.7-0.8-1.8-3.1-4.6-5.6-8-7-0.8-0.3-1.8-0.7-2.2-1.5-0.3-0.7-0.1-1.5 0-2.2 0.3-0.9 0.6-1.9 1.3-2.5 0.4-0.4 0.8-0.6 1.3-0.6 0.7-0.1 1.3 0.1 1.9 0.3q4.1 1.3 8.2 2.7c1 0.3 2.1 0.7 2.7 1.5 0.8 1 0.7 2.5 0.4 3.7z"/>
			<path id="Layer" fill-rule="evenodd" class="s3" d="m43.2 7.2c3.1 0.8 6 2 8.9 3.4 2.3 1.2 4.8 3.3 4.3 5.8-0.3 1.5-1.6 2.6-2.7 3.6-3.7 3.4-6.9 7.4-9.1 11.9-1.2 2.3-2.2 5.1-1.1 7.5 1.1 2.3 3.6 3.4 6 4.3q21.7 8.2 43.4 16.5c1.3 0.5 2.7 1.1 3.6 2.2 0.9 1.1 1.1 3 0 3.9-1.1 0.9-2.8 0.4-4.2-0.1q-17.2-6.7-34.4-13.4-7.5-3-15.1-5.9c-4-1.6-8.1-3.2-11.5-5.9-1.1-0.9-2.4-1.9-2.2-3.5 0.1-0.6 0.4-1.2 0.7-1.8 2.7-6 5.5-12 4.8-18.9-0.4-3-1.1-6.6 1.1-8.7 1.8-1.9 4.9-1.6 7.5-0.9z"/>
			<path id="Layer" fill-rule="evenodd" class="s3" d="m36.9 92.4c-2-0.1-3.9 0.2-6.1 0.8q-2.7 0.7-5.5 1.4c-1.5 0.3-3.6 1.3-5.2 1.3-2.2 0-6.2 2-5.9 4.6 0.3 2 1.7 3.5 2.5 5.3 1 2.5 1.1 5.2 1.2 7.9 0 0.7 0.1 1.5 0.7 1.9 0.4 0.3 0.9 0.2 1.4 0.2 0.5-0.1 0.9-0.2 1.3 0.1 0.7 0.5 0.6 2.3 0.7 3.1 0.2 1.6 0.7 1.4 1.9 1.5 1.2 0.2 2.4 0.8 3.7 0.9 2.5 0.2 5-0.8 7.3-1.8-0.4 1.3-0.9 2.7-0.4 4 0.7 1.6 3.2 2.7 4.7 3.3 20.9 8.9 45.3 9.1 66.3 0.5 1.5-0.6 3.2-1.3 4.2-2.7 1-1.3 1.1-3.5-0.1-4.6 1.2 1.1 4.9 1.1 6.5 1.1 2.1 0.1 4.7 0 6.7-0.9-0.1-1.2-0.1-2.4-0.2-3.6 0-0.2 0-0.4 0.1-0.5 0.1-0.5 0.8-0.7 1.3-0.6 0.6 0 1.1 0.2 1.6 0.2 1.2-0.1 1.5-2 1.4-2.8 0-1.6-0.3-2.9 0.2-4.6 0.5-1.4 1.3-2.7 1.9-4.1 0.7-1.4 1.1-3 0.8-4.5-0.3-1.7-1.4-2.1-2.8-2.8-1.3-0.6-2.2-1.7-3.6-2.2-1.7-0.6-3.6-0.7-5.4-1.1-3.1-0.5-6.2-1.4-9.4-1.4-2.1 0-6.6 0.8-7.4 3-0.3 0.8-0.2 1.6 0.1 2.4 0.3 0.8 0.7 1.6 0.9 2.4 0.5 1.9-0.6 3.7-0.3 5.7 0.2 0.9 1.4 1.5 0.9 2.6-0.4 0.7-1.2 1-1.9 1.1q-1.7 0.4-3.4 0.8c-9.3 2.2-19.1 3.1-28.7 2.9q-7.4-0.3-14.7-1.4c-2 0-4.3-0.9-6.2-1.4-1.5-0.3-3-0.6-4.4-1-2.1-0.5-0.8-2.3-1.1-4-0.3-1-0.7-2-0.9-3.1-0.2-1.5 0.1-2.6 0.8-3.8 0.6-1 1.4-2.2 1-3.4-0.5-1.3-1.9-1.9-3.2-2.2-1.2-0.3-2.3-0.5-3.3-0.5z"/>
			<path id="Layer" fill-rule="evenodd" class="s0" d="m63.8 16c-0.4 0.9-0.5 1.9-0.6 2.9q-0.7 0.2-1.5 0.3-0.8 0.2-1.5 0.3-0.8 0.2-1.5 0.4-0.7 0.2-1.4 0.4-0.7 0.2-1.4 0.4-0.7 0.2-1.4 0.5-0.6 0.2-1.3 0.5l-0.2 0.1h-0.1c-0.2 0.1-0.1-0.2 0-0.2l0.2-0.2 0.3-0.2c0.1-0.1 0.2-0.2 0.3-0.3l0.2-0.2 0.2-0.2q0.2-0.2 0.5-0.4 0.5-0.4 1-0.7 0.6-0.3 1.2-0.5 0.3-0.1 0.7-0.2 0.1 0 0.3 0l0.3-0.1c0.1-0.1 0-0.3 0-0.4 0-0.1-0.3-0.9-0.4-0.9 1.3-0.4 2.7-0.7 4.1-0.9 0.6-0.1 1.3-0.4 2-0.4z"/>
			<path id="Layer" fill-rule="evenodd" class="s0" d="m128.5 72.2q0 1.1 0.1 2.2c-0.5-0.3-0.9-0.6-1.4-0.8-0.2 0-1.4-0.3-1.4-0.2 0.1-3.5-0.2-7-0.7-10.4-0.6-3.4-1.4-6.7-2.5-9.9q-1.1-2.9-2.6-5.8-1.9-3.7-4.3-7.1-2.4-3.3-5.3-6.2-2.9-2.9-6.2-5.3-3.4-2.4-7-4.3-1.9-1-3.8-1.9-0.9-0.4-1.9-0.8-0.5-0.2-1-0.4c-0.2 0-0.8-0.2-0.9-0.4l0.1-0.2q0.2-0.9 0.1-1.9c0-1 1-0.5 1.5-0.2 1.2 0.6 2.5 1 3.7 1.5q1.8 0.7 3.5 1.6 3.5 1.8 6.7 4.1c4.5 3.3 8.3 7.2 11.7 11.6 1.6 2 3 4 4.3 6.2q1 2 2 4.1c0.5 1 1 2 1.4 3.1 0.6 1.6 1.2 3.2 1.7 4.9q0.6 2.1 1 4.3 0.6 2.8 0.9 5.6 0.3 2.2 0.4 4.5 0 1-0.1 2.1z"/>
			<path id="Layer" fill-rule="evenodd" class="s0" d="m97.5 93c0.6 0 1.3 0.1 1.9 0.2q1.1 0.1 2.2 0.2 0.4 0.1 0.7 0.1c-0.6 0.3-1 0.9-1.2 1.6-0.2 0.4-0.2 0.8-0.2 1.3 0 0.4-0.1 0.8 0.1 1.2q0.2 0.3 0.3 0.6c0.1 0.2 0.1 0.3 0.2 0.4 0.3 0.3 0.6 0.2 0.6 0.7-0.1 0.8 0.3 1.7 0.4 2.5 0.1 0.6 0.1 1.2-0.1 1.7-0.2 0.5-0.3 0.6-0.8 0.7-0.4 0.2-1.6 0.6-1.3 1.2 0.1 0.2 0.4 0.5 0.5 0.7q0.2 0.3 0.3 0.7 0.3 0.7 0.4 1.5c0 0.4 0 0.8-0.2 1.1-0.2 0.3-0.6 0.4-0.9 0.5-1.5 0.4-2.9 0.5-4.4 0.7 0.2-0.4 0.2-1 0.3-1.5q0.1-0.9 0.2-1.8c0.1-0.4 0-0.8-0.1-1.2q-0.1-0.8-0.1-1.6c0-1 0.1-2 0.2-3.1 0.2-1.9 0.5-3.8 0.5-5.7-0.1-0.4-0.1-0.8 0-1.2 0.1-0.5 0-1.1-0.2-1.6q0.3 0 0.7 0.1z"/>
			<path id="Layer" fill-rule="evenodd" class="s4" d="m73.2 71.5q0.2 0.3 0.4 0.6c1.2 2.1 1.2 4.3 1.6 6.6-1 0.1-2.3-1.1-3-1.7-2.4-2.2-5.2-4-9.2-4.6 0.9 0.6 1.9 1.3 2.2 2.6-3.9 0.5-6.4 2.3-8.9 4.1 0.5-1.9 1.8-3.8 3.5-4.8-2.7-0.8-4.8 0.7-6.3 1.7 1-3.3 2.5-6.3 4.9-8.3-1.9 0.1-3.6 1.2-4.7 2.5-0.1-0.6 0.5-1.4 0.9-1.9 2.1-2.5 6.4-4 10.8-2.6-1.8-3.3-5.7-5.8-10.9-4.9-0.3 0-0.5 0.2-0.7 0.3 0.1-1.4 0.7-3.1 1.2-4.4 1.4-0.3 3.3-0.4 4.4-0.5-0.8-0.2-1.4-0.5-2.1-0.6-7.6-1.2-9.4 5.7-12 10.1-0.6-3.7 1.8-6.3 3.5-8.5 1.8-2.3 3-3.8 6.1-4.1 2.9-0.2 4.3 0.6 6.4 1.4 2.7 1.2 5.3 2.3 8.2 3.5 0.6 0.3 1.3 0.4 1.7 0.7 0.8 0.5 1.8 1.8 2.5 2.9 2.6 3.7 4.3 8.7 4.9 13.8-1.1-1.8-2.4-3.6-3.6-5.3-0.3-6.9-4.1-10.4-9.8-11.9 3.8 1.9 6.3 5 6.8 10.2-1-0.8-2.1-1.5-2.9-2.6 0.6 0.3 1.3 0 1.6-0.3-1.9-1.1-3.4-2.5-4.6-4.3 0.4 0.6 0.2 1.3 0.3 1.9 0.6 2.1 2 3.2 3.5 4.6 0.8 0.7 1.4 1.7 2.1 2.6 0.3 0.4 0.8 0.8 1.2 1.2z"/>
			<path id="Layer" class="s5" d="m73.2 71.5q0.2 0.3 0.4 0.6c1.2 2.1 1.2 4.3 1.6 6.6-1 0.1-2.3-1.1-3-1.7-2.4-2.2-5.2-4-9.2-4.6 0.9 0.6 1.9 1.3 2.2 2.6-3.9 0.5-6.4 2.3-8.9 4.1 0.5-1.9 1.8-3.8 3.5-4.8-2.7-0.8-4.8 0.7-6.3 1.7 1-3.3 2.5-6.3 4.9-8.3-1.9 0.1-3.6 1.2-4.7 2.5-0.1-0.6 0.5-1.4 0.9-1.9 2.1-2.5 6.4-4 10.8-2.6-1.8-3.3-5.7-5.8-10.9-4.9-0.3 0-0.5 0.2-0.7 0.3 0.1-1.4 0.7-3.1 1.2-4.4 1.4-0.3 3.3-0.4 4.4-0.5-0.8-0.2-1.4-0.5-2.1-0.6-7.6-1.2-9.4 5.7-12 10.1-0.6-3.7 1.8-6.3 3.5-8.5 1.8-2.3 3-3.8 6.1-4.1 2.9-0.2 4.3 0.6 6.4 1.4 2.7 1.2 5.3 2.3 8.2 3.5 0.6 0.3 1.3 0.4 1.7 0.7 0.8 0.5 1.8 1.8 2.5 2.9 2.6 3.7 4.3 8.7 4.9 13.8-1.1-1.8-2.4-3.6-3.6-5.3-0.3-6.9-4.1-10.4-9.8-11.9 3.8 1.9 6.3 5 6.8 10.2-1-0.8-2.1-1.5-2.9-2.6 0.6 0.3 1.3 0 1.6-0.3-1.9-1.1-3.4-2.5-4.6-4.3 0.4 0.6 0.2 1.3 0.3 1.9 0.6 2.1 2 3.2 3.5 4.6 0.8 0.7 1.4 1.7 2.1 2.6 0.3 0.4 0.8 0.8 1.2 1.2z"/>
			<path id="Layer" fill-rule="evenodd" class="s6" d="m80.8 12.3c0.3 2.4-0.1 4.8-1.2 6.1-0.8-0.3-1.8-0.4-2.9-0.4 1.7-1.5 3.4-3.1 4.1-5.7z"/>
			<path id="Layer" class="s7" d="m80.8 12.3c0.3 2.4-0.1 4.8-1.2 6.1-0.8-0.3-1.8-0.4-2.9-0.4 1.7-1.5 3.4-3.1 4.1-5.7z"/>
			<path id="Layer" fill-rule="evenodd" class="s6" d="m73.4 15c-1.2 0.5-2.3 1.1-3 2-0.1-0.4 0.3-1.1 0.5-1.7-1.1 0.1-2.2 1.1-2.9 1.9-0.2-0.3-0.5-0.5-0.7-0.9-0.9 0.5-1.7 1.1-2.6 1.6 0.7-2.6 3.4-4.1 6.9-4.2q-0.4 0.5-1 0.8c2.6-0.5 6.3-0.7 8.8-1.6-1.5 2.2-4.4 2.9-6.7 4.3 0.1-0.9 0.4-1.5 0.7-2.2z"/>
			<path id="Layer" class="s7" d="m73.4 15c-1.2 0.5-2.3 1.1-3 2-0.1-0.4 0.3-1.1 0.5-1.7-1.1 0.1-2.2 1.1-2.9 1.9-0.2-0.3-0.5-0.5-0.7-0.9-0.9 0.5-1.7 1.1-2.6 1.6 0.7-2.6 3.4-4.1 6.9-4.2q-0.4 0.5-1 0.8c2.6-0.5 6.3-0.7 8.8-1.6-1.5 2.2-4.4 2.9-6.7 4.3 0.1-0.9 0.4-1.5 0.7-2.2z"/>
			<path id="Layer" fill-rule="evenodd" class="s6" d="m67.4 19.4c-1.1 1.3-2.2 2.7-2.5 4.8-0.4-0.4-0.2-1.4-0.5-1.9-1.1 2.5-0.2 5.7-0.8 8.4-1.5-3.1-1.3-9 0.7-11.3 0.9-0.1 2.4-0.6 3.1 0z"/>
			<path id="Layer" class="s7" d="m67.4 19.4c-1.1 1.3-2.2 2.7-2.5 4.8-0.4-0.4-0.2-1.4-0.5-1.9-1.1 2.5-0.2 5.7-0.8 8.4-1.5-3.1-1.3-9 0.7-11.3 0.9-0.1 2.4-0.6 3.1 0z"/>
			<path id="Layer" fill-rule="evenodd" class="s6" d="m71.1 34.1c0.6 2.3-1.2 3.8-1.3 6-0.4-2.2 0.3-4.7 1.3-6z"/>
			<path id="Layer" class="s7" d="m71.1 34.1c0.6 2.3-1.2 3.8-1.3 6-0.4-2.2 0.3-4.7 1.3-6z"/>
			<path id="Layer" fill-rule="evenodd" class="s6" d="m78.7 38.4c0.6-0.1 1.6-1.1 2.4-1.1-1 1.2-2.2 2.3-4 2.7-0.2-0.3 0.3-0.4 0.3-0.6-1.3 0.4-3.3 0.1-3.1-1.8 0.6 0.2 0.9 1 1.7 1.1 1.1 0.2 2.1-0.7 3-1 0 0.3-0.2 0.5-0.3 0.7z"/>
			<path id="Layer" class="s7" d="m78.7 38.4c0.6-0.1 1.6-1.1 2.4-1.1-1 1.2-2.2 2.3-4 2.7-0.2-0.3 0.3-0.4 0.3-0.6-1.3 0.4-3.3 0.1-3.1-1.8 0.6 0.2 0.9 1 1.7 1.1 1.1 0.2 2.1-0.7 3-1 0 0.3-0.2 0.5-0.3 0.7z"/>
			<path id="Layer" fill-rule="evenodd" class="s6" d="m71.8 43.5q-0.1 0.3-0.2 0.7c0 0.3 0.1 1.2-0.2 1.4-0.5 0.3-0.7-0.4-0.9-0.8-0.3-1-0.1-2.1 0-3.1 0.1-1.4 0.4-2.9 0.9-4.3 0.5 0.6 0.5 1.5 1 2-0.4 0.9-1 1.5-1.1 2.7 0.6-0.6 0.9-1.5 1.7-1.7-0.1 0-0.3 0.5-0.3 0.6q-0.2 0.4-0.4 0.8c-0.2 0.5-0.2 0.9-0.4 1.4q-0.1 0.1-0.1 0.3z"/>
			<path id="Layer" class="s7" d="m71.8 43.5q-0.1 0.3-0.2 0.7c0 0.3 0.1 1.2-0.2 1.4-0.5 0.3-0.7-0.4-0.9-0.8-0.3-1-0.1-2.1 0-3.1 0.1-1.4 0.4-2.9 0.9-4.3 0.5 0.6 0.5 1.5 1 2-0.4 0.9-1 1.5-1.1 2.7 0.6-0.6 0.9-1.5 1.7-1.7-0.1 0-0.3 0.5-0.3 0.6q-0.2 0.4-0.4 0.8c-0.2 0.5-0.2 0.9-0.4 1.4q-0.1 0.1-0.1 0.3z"/>
			<path id="Layer" fill-rule="evenodd" class="s6" d="m81.4 37.5c0.3 0 0.3 0.5 0.5 0.6q-0.9 0.8-2.3 1.3c0.6-0.7 1.3-1.1 1.8-1.9z"/>
			<path id="Layer" class="s7" d="m81.4 37.5c0.3 0 0.3 0.5 0.5 0.6q-0.9 0.8-2.3 1.3c0.6-0.7 1.3-1.1 1.8-1.9z"/>
			<path id="Layer" fill-rule="evenodd" class="s6" d="m84.5 38c0.6 0.5 1.1 1.1 1.3 2.1 0.2-0.1 0.2-0.4 0.2-0.7 0.3 0.5 0.8 1 1.2 1.5h1.2c-0.7 1.7-3.1 0.4-3.1-1-0.2 0.1-0.1 0.6-0.2 0.7-0.3-0.5-0.3-1.3-0.8-1.6 0.2-0.2 0.2-0.6 0.2-1z"/>
			<path id="Layer" class="s7" d="m84.5 38c0.6 0.5 1.1 1.1 1.3 2.1 0.2-0.1 0.2-0.4 0.2-0.7 0.3 0.5 0.8 1 1.2 1.5h1.2c-0.7 1.7-3.1 0.4-3.1-1-0.2 0.1-0.1 0.6-0.2 0.7-0.3-0.5-0.3-1.3-0.8-1.6 0.2-0.2 0.2-0.6 0.2-1z"/>
			<path id="Layer" fill-rule="evenodd" class="s6" d="m74.4 41.5c1.9 1.1 2.1 3.8 2.2 6.7-1.1-1.8-2-3.9-2.2-6.7z"/>
			<path id="Layer" class="s7" d="m74.4 41.5c1.9 1.1 2.1 3.8 2.2 6.7-1.1-1.8-2-3.9-2.2-6.7z"/>
			<path id="Layer" fill-rule="evenodd" class="s0" d="m117.1 59.2q0.4 0.7 1 1.3 1 1.1 2.2 1.9c-0.4 0.1-0.9 0-1.4 0-0.2 0-0.5 0-0.8-0.1-0.2 0-0.5-0.2-0.7-0.2-0.4 0-0.2 0.3 0 0.5 1.2 2.1 3.2 3.4 5.3 4.6-0.6 0.8-2.1 0.6-3.5 0.6 0.4 1.4 1.9 2.4 3.1 3.3-1.8-0.6-3.4-1.4-5.2-2 0.4-2.9-0.8-4.8-3.2-5.3-0.7-1.3-1.7-2.2-3.6-2.4-0.1-0.3-0.2-0.6-0.5-0.6v-0.1q1.7-1.4 2.3-3.8c-0.5 0-1.2 0.5-2.2 0.4 1.8-2.3 3.1-5.2 4.1-8.3 1 3.1 2.6 6.1 4.2 8.4-0.8 0-1.4-0.3-2.2-0.6 0 0.4 0.3 0.8 0.5 1.2q0.3 0.7 0.6 1.2z"/>
			<path id="Layer" fill-rule="evenodd" class="s4" d="m81.7 52.1c1.1 0.8 2.4 1.4 4 1.8-0.6 0.6-1.2 1.3-1.7 2.1-0.5-0.2-1.1-0.4-1.6-0.7-0.3-1-0.7-1.9-0.7-3.2z"/>
			<path id="Layer" class="s5" d="m81.7 52.1c1.1 0.8 2.4 1.4 4 1.8-0.6 0.6-1.2 1.3-1.7 2.1-0.5-0.2-1.1-0.4-1.6-0.7-0.3-1-0.7-1.9-0.7-3.2z"/>
			<path id="Layer" fill-rule="evenodd" class="s4" d="m86 53.9c0.1 0.1 0.3 0.1 0.6 0.1-0.1 1-0.2 2-0.4 2.9-0.3-0.1-0.5-0.2-0.7-0.3 0.2-0.9 0.3-1.9 0.5-2.7z"/>
			<path id="Layer" class="s5" d="m86 53.9c0.1 0.1 0.3 0.1 0.6 0.1-0.1 1-0.2 2-0.4 2.9-0.3-0.1-0.5-0.2-0.7-0.3 0.2-0.9 0.3-1.9 0.5-2.7z"/>
			<path id="Layer" fill-rule="evenodd" class="s4" d="m53.2 57.3c-1 1.5-1.9 3-2.2 5.3-0.1 0.9 0.1 1.9-0.1 3-0.2 1.3-1.1 2.7-1.1 4 0.9-0.9 2.1-2.4 3.7-2.9-3.5 5.4-6.9 11.1-8.8 18.2 1.4-0.4 2.2-1.8 3-2.9 0.9-1.1 1.9-2.2 2.7-3.4-1.2 3.4-2.8 7.1-4.6 10.1-1.3 0.7-2 2.1-3 3.1-0.1-2.8-1.1-6-0.4-8.7 0.3-1.1 1.2-2.4 1.8-3.6 2-3.8 4.3-7.9 4.4-13.7-0.8 1.8-1.5 3.5-2.8 4.7 1.2-5.3 2.8-11 7.4-13.2z"/>
			<path id="Layer" class="s5" d="m53.2 57.3c-1 1.5-1.9 3-2.2 5.3-0.1 0.9 0.1 1.9-0.1 3-0.2 1.3-1.1 2.7-1.1 4 0.9-0.9 2.1-2.4 3.7-2.9-3.5 5.4-6.9 11.1-8.8 18.2 1.4-0.4 2.2-1.8 3-2.9 0.9-1.1 1.9-2.2 2.7-3.4-1.2 3.4-2.8 7.1-4.6 10.1-1.3 0.7-2 2.1-3 3.1-0.1-2.8-1.1-6-0.4-8.7 0.3-1.1 1.2-2.4 1.8-3.6 2-3.8 4.3-7.9 4.4-13.7-0.8 1.8-1.5 3.5-2.8 4.7 1.2-5.3 2.8-11 7.4-13.2z"/>
			<path id="Layer" fill-rule="evenodd" class="s4" d="m82.9 63.6c1.6 3.9 3.1 8.5 4.2 12.7-2.2 0.1-4.1-0.2-5.5-0.8q-0.8-7.6-3.7-13.1c0.2-0.4 0.8 0.2 1 0 0.2-0.1 0.2-0.3 0.3-0.4 1.3 0.5 2.4 1.1 3.7 1.6z"/>
			<path id="Layer" class="s5" d="m82.9 63.6c1.6 3.9 3.1 8.5 4.2 12.7-2.2 0.1-4.1-0.2-5.5-0.8q-0.8-7.6-3.7-13.1c0.2-0.4 0.8 0.2 1 0 0.2-0.1 0.2-0.3 0.3-0.4 1.3 0.5 2.4 1.1 3.7 1.6z"/>
			<path id="Layer" fill-rule="evenodd" class="s4" d="m85 64.7c1.4 0.2 2.9 1 4.2 1.6 0.8 2.9 1.1 7.5-0.6 9.7-1-3.9-2.1-7.9-3.6-11.3z"/>
			<path id="Layer" class="s5" d="m85 64.7c1.4 0.2 2.9 1 4.2 1.6 0.8 2.9 1.1 7.5-0.6 9.7-1-3.9-2.1-7.9-3.6-11.3z"/>
			<path id="Layer" fill-rule="evenodd" class="s0" d="m127.6 82.2c-0.2 0.9-0.4 1.7-0.7 2.5q-0.3 1.4-0.7 2.9-0.6 1.9-1.3 3.7c-0.2 0.5-0.4 1.1-0.6 1.6-0.2 0.6-0.5 1.2-0.7 1.9-0.9-0.2-1.8-0.5-2.7-0.8 0.7-1.9 1.5-3.4 2-5.4-3.1 0-5.4-0.6-6.9-2.3q0 2 0.1 3.9 0 1 0.1 1.9c0 0.3 0 0.6 0.1 0.8 0.1 0.2 0.3 0.5 0.1 0.6h-0.2q-2.2-0.3-4.4-0.6c0.2-0.6 0.2-1.2 0.2-1.8q0-1 0-2c0.1-0.6 0.2-1.2 0.2-1.8q0.1-0.6 0.2-1.2c-0.2 0.3-0.4 0.4-0.6 0.6-0.3 0.2-0.5 0.4-0.8 0.6q-1.1 0.6-2.3 0.9c-1.2 0.3-2.3 0.3-3.5 0.3 0.4-0.7 1.1-1.2 1.3-2.1-0.4 0-1.4 0.1-2.2 0 4.4-1.8 7.4-5.1 8.7-10 2.2 1.3 4.6 2.1 6.3 3.7 0.6 0.5 1 1.2 1.4 1.9 0.3 0.6 0.8 1 1.2 1.6q0.3 0.5 0.5 1c0.2 0.2 0.3 0.7 0.5 0.9 0.3 0.2 0.3 0.1 0.6-0.1 0.2-0.2 0.4-0.4 0.6-0.6q0.6-0.4 1.1-0.9 0.6-0.5 1.2-1c0.4-0.4 0.8-1 1.3-1.2q0 0.3-0.1 0.5zm-4.6 6.2c0.3-0.9 0.5-1.4 0.7-2-0.7 0.1-1.2 0.1-2.1 0 0.4 0.8 0.7 1.3 1.4 2z"/>
			<path id="Layer" class="s8" d="m64.6 36q0.6 0.5 1.1 1.1c0 1.2-0.3 2.2-0.2 3.5-0.1 0.6 0 1.3 0 2 0 0.2 0.1 0.7 0 0.9-0.2 0.2-0.4-0.2-0.5-0.3q-1.2-1.1-2.2-2.5c0.5-1.7 1.2-3.1 1.8-4.7z"/>
			<path id="Layer" fill-rule="evenodd" class="s4" d="m49.5 100.8c-0.3-3 0.2-5.8 0.9-8.2-1.6 1.8-2.6 4.1-3.4 6.7l-0.2-0.5q-0.1-0.3-0.2-0.6c-0.1-0.4 0-0.8-0.1-1.2 0-0.8 0.1-1.7 0.2-2.5 0.2-0.8 0.3-1.7 0.6-2.5 0.2-0.6 0.4-1.2 0.7-1.8 0.3-0.5 0.8-1.1 1.2-1.6q0.2-0.3 0.5-0.6c0.1-0.1 0.3-0.4 0.4-0.5-0.4 0-0.8 0.3-1 0.5q-0.5 0.3-1 0.8-1 0.9-1.8 2c-0.6 0.7-1.2 1.4-1.6 2.3-1.1 2-0.8 4.6-0.1 6.6v0.1c0.1 0.4 0.4 0.8 0.7 1.1q0.5 0.6 1 1.1 0.3 0.2 0.6 0.4c1.1 2.6 2.6 5.8 6.4 5.3-1.9-1.4-3.5-3.9-3.8-6.9z"/>
			<path id="Layer" class="s5" d="m49.5 100.8c-0.3-3 0.2-5.8 0.9-8.2-1.6 1.8-2.6 4.1-3.4 6.7l-0.2-0.5q-0.1-0.3-0.2-0.6c-0.1-0.4 0-0.8-0.1-1.2 0-0.8 0.1-1.7 0.2-2.5 0.2-0.8 0.3-1.7 0.6-2.5 0.2-0.6 0.4-1.2 0.7-1.8 0.3-0.5 0.8-1.1 1.2-1.6q0.2-0.3 0.5-0.6c0.1-0.1 0.3-0.4 0.4-0.5-0.4 0-0.8 0.3-1 0.5q-0.5 0.3-1 0.8-1 0.9-1.8 2c-0.6 0.7-1.2 1.4-1.6 2.3-1.1 2-0.8 4.6-0.1 6.6v0.1c0.1 0.4 0.4 0.8 0.7 1.1q0.5 0.6 1 1.1 0.3 0.2 0.6 0.4c1.1 2.6 2.6 5.8 6.4 5.3-1.9-1.4-3.5-3.9-3.8-6.9z"/>
			<path id="Layer" fill-rule="evenodd" class="s4" d="m42.6 103.2c0.6 0.7 1.2 1.5 2.1 1.9 1.5 2.7 3.5 4.7 6.7 5.7-2.6-0.3-5.4-1.3-7.7-2.2-0.5-1.3 0.8-2.4 0.7-3.2-0.1-0.8-1.1-1-1.9-1.4-0.2-0.3 0.2-0.3 0.1-0.8z"/>
			<path id="Layer" class="s5" d="m42.6 103.2c0.6 0.7 1.2 1.5 2.1 1.9 1.5 2.7 3.5 4.7 6.7 5.7-2.6-0.3-5.4-1.3-7.7-2.2-0.5-1.3 0.8-2.4 0.7-3.2-0.1-0.8-1.1-1-1.9-1.4-0.2-0.3 0.2-0.3 0.1-0.8z"/>
			<path id="Layer" class="s9" d="m33.3 23.1z"/>
			<path id="Layer" fill-rule="evenodd" class="s10" d="m103 57.2c-3.9-0.6-4.2 2.5-6 3.9q-0.9-0.3-1.6-0.6-0.1-0.2-0.3-0.2c0.9-0.7 1.5-2.3 2.8-2.4 0.8-1.7 2.3-3 3.2-4.8 0.8-1.5 1.3-3.3 2.1-4.9q1.3-2.3 2.6-4.6c0.6 0.6 1.5 0.8 2.1 1.5-0.3 1.2-0.5 2.7-0.6 4.1-1.1 2.2-2.8 4.3-3.8 6.3q2.1-1.3 4.3-2.4c-0.3 0.9-0.6 1.5-1.1 2.5-0.3 0.7-0.5 2-1.2 1.9h-0.5v-0.1c-0.6-0.1-1.4-0.1-2-0.2z"/>
			<path id="Layer" fill-rule="evenodd" class="s0" d="m43.4 71.3c0 1.2 0 2.4-0.2 3.6-0.2 0.9-0.6 1.7-0.8 2.5-0.2 0.8-0.4 1.6-0.7 2.4-0.2 0.7-0.1 1.5-0.3 2.1q-0.1 0.6-0.4 1.1c-0.2 0.4-0.2 0.7-0.3 1.1q-0.2 1.4-0.1 2.8 0 1.4 0.2 2.7c0.1 0.9 0.4 1.9 0.6 2.8-0.8 0.3-1.7-0.2-2.5-0.2-0.9-0.2-2-0.2-3-0.1 0.2-1.8 0.1-3.9 0.3-5.5-0.9 0.3-2.1 0.7-3.2 0.4-0.2 0.6 0.7 0.9 0.9 1.5-2.4 0.1-4.2-0.3-5.2-1.5-0.3 1.6 0 4.2 0.2 6-1.3 0.2-2.5 0.4-3.7 0.7 0.4-1.8 0.3-3.8 0.3-5.6 0-0.3 0-0.5 0.1-0.8 0-0.2 0.1-0.2-0.1-0.2-0.2 0-0.5 0.3-0.7 0.4q-0.5 0.3-1 0.5-0.8 0.3-1.6 0.4c-0.4 0.1-0.6 0-0.4 0.5 0.2 0.4 0.4 0.8 0.5 1.3 0.1 0.4 0.2 0.8 0.4 1.2 0 0.2 1.1 2.6 1.1 2.6-0.8 0.3-1.8 0.5-2.7 0.8-0.2-0.8-0.6-1.5-0.9-2.2q-0.5-1.1-0.9-2.3-0.4-1-0.7-2c-0.1-0.5-0.1-1.2-0.5-1.6-0.3-0.4-0.9-0.7-1.3-0.9l-0.2-0.1v-0.1h0.1c0.3-0.1 0.6-0.2 0.8-0.3 0.4-0.2 0.2-0.4 0.2-0.7q-0.6-2.8-1-5.5c-0.3-1.8-0.5-3.6-0.5-5.4v-4.2c0-1.4 0.2-2.8 0.4-4.2 0.1-1.3 0.3-2.6 0.6-3.9q0.4-2.7 1.1-5.4 0.4-1.3 0.8-2.5c0.2-0.7 0.4-1.3 0.7-2q1.7-4.8 4.4-9.1 0.5-0.7 1-1.4 0.3-0.4 0.5-0.9c0.3-0.4 0.5-0.4 1-0.3 0.2 0.1 0.4 0.3 0.5 0.5q0.1 0.2 0 0.5 0 1-0.1 2c0 0.2 0.1 0.4 0 0.6 0 0.1-0.1 0.3-0.2 0.4-0.4 0.6-0.8 1.1-1.2 1.7q-0.7 1.2-1.4 2.6-1.3 2.6-2.3 5.5c-1.6 4.5-2.6 9.1-3 13.9q-0.2 3.4-0.1 6.9c0.1 1.7 0.3 3.3 0.6 5q0 0.5 0.1 1.1c0.1 0.4 0.1 0.4 0.5 0.2 1.1-0.7 2.1-1.4 3-2.3 0.4-0.4 0.8-0.8 1-1.4-0.6 0-1.9 0.5-2.8 0.2 1.7-1.3 3.3-2.5 3.9-4.7-0.6 0.1-1.5 0.6-2.1 0.4 1.7-2 2.9-4.4 4-7.1 0.7 2 1.7 3.8 2.7 5.6 1.9-1.3 3.6-2.8 4.6-5-0.9 0.1-2.5 0.6-3.8 0.3 2.2-1.9 4.5-3.8 5.3-7.2-0.7 0.2-1.6 0.9-2.9 0.7 2.2-3.1 4.2-6.5 5.2-10.8 0.5 1.2 0.8 2 1.2 3 1.1 2.8 2.6 5.6 4.4 7.8l-0.1 0.2v-0.1c-1.1-0.1-2.1-0.4-2.9-0.9q0.2 1.2 0.8 2.3 0.3 0.4 0.6 0.9c0.1 0.1 0.2 0.3 0.3 0.4 0.3 0.3 0.5 0.2 0.5 0.7 0.1 0.2 0 0.5 0 0.7-0.1 0.7 0.1 1.4 0.2 2.1 0.3 1.2 0 2.3 0.1 3.5q0.1 0.6 0.1 1.3zm-10.1 12.2c0.9 0.7 1.9 1.3 2.9 1.7 0.2-1.1 0-2.7 0.3-3.8-0.9 0.9-2 1.5-3.2 2.1zm-2.5-8.1c0.3-0.5 0.8-0.9 1-1.6h-2.3c0.4 0.6 0.7 1.2 1.3 1.6zm-10.8 6.8c0.1 0.5 0.3 1.1 0.4 1.7 0 0.1 0.5-0.5 0.5-0.5 0.1-0.2 0.3-0.3 0.4-0.4 0.4-0.3 0.7-0.7 0.9-1.1h-1.1q-0.6 0-1.2-0.1 0 0.2 0.1 0.4z"/>
			<path id="Layer" fill-rule="evenodd" class="s6" d="m86.9 18.8c-0.9 0.8-1.5 2-2.7 2.6-1-1-1.8-2.1-3.3-2.6 0.7-1.4 1.9-2.2 2.1-3.9 0.6 0.8 0.6 2.6 0.6 3.7 1.1-1.1 1.5-4.4 1.2-6.6 0.9 1.3 1.7 2.9 1.6 5.2 0.9-0.5 1.6-1.3 2.2-2.2 0.2 3.4-1.2 5.8-3 7.5 0.2-1.1 1-2.5 1.3-3.7z"/>
			<path id="Layer" class="s7" d="m86.9 18.8c-0.9 0.8-1.5 2-2.7 2.6-1-1-1.8-2.1-3.3-2.6 0.7-1.4 1.9-2.2 2.1-3.9 0.6 0.8 0.6 2.6 0.6 3.7 1.1-1.1 1.5-4.4 1.2-6.6 0.9 1.3 1.7 2.9 1.6 5.2 0.9-0.5 1.6-1.3 2.2-2.2 0.2 3.4-1.2 5.8-3 7.5 0.2-1.1 1-2.5 1.3-3.7z"/>
			<path id="Layer" fill-rule="evenodd" class="s10" d="m102.3 41.2c-0.8 0.7-1.2 1.5-1.6 2.4-1.8 1.1-3.6 2.3-5.6 3.2 1.9-2.7 3.9-5.4 5.4-8.4-1.1 0.5-2.4 1.8-3.7 2.5q-1 1.4-2.1 2.9c-0.7 0.9-1.3 2.1-2.2 2.8-0.8 0.8-1.7 1.4-2.6 2.1q-0.7 0.5-1.3 1c-0.3 0.2-0.5 0.4-0.7 0.5-0.2 0.2-0.5 0.2-0.5 0.5q0 0.2 0.1 0.4 0.3 0.7 0.6 1.5c0.1 0.3 0.2 0.6 0 0.8-0.1 0.1-0.3 0.2-0.4 0.3-0.7 0.5 0 1.1 0.4 1.5 0.3 0.3 0.5 1 0.9 1.2 0.8 0.4 1.5-0.8 1.9-1.2 0.6-0.6 1.1-1.3 1.8-1.9 0.7-0.7 1.6-1.3 2.2-2.1 0.2-0.3 0.7-0.7 0.9-0.1 0.1 0.3-0.4 0.7-0.5 1q-0.4 0.7-0.8 1.5c-0.7 1.2-1.3 2.3-1.9 3.5 0.6 0 1.6-1 2.1-1.3 0.7-0.5 1.6-0.9 2.2-1.5 0.8-0.9 1.5-2.2 1.9-3.4 0.4-1.3 1.3-2.6 1.9-3.9 0.6-1.2 1.1-2.5 1.3-3.8 0.1-0.4-0.1-1.7 0.3-2z"/>
			<path id="Layer" fill-rule="evenodd" class="s4" d="m57.8 45.7c0.7-1.4 1.5-2.7 2.6-3.7 4.8 4.2 10.4 7.4 15.8 10.9 0.2 0 0.2 0.1 0 0.1-6.1-2.5-12.2-5-18.4-7.3z"/>
			<path id="Layer" class="s5" d="m57.8 45.7c0.7-1.4 1.5-2.7 2.6-3.7 4.8 4.2 10.4 7.4 15.8 10.9 0.2 0 0.2 0.1 0 0.1-6.1-2.5-12.2-5-18.4-7.3z"/>
			<path id="Layer" fill-rule="evenodd" class="s6" d="m76.8 42.8c0.7 0.1 1.3 1.2 2 1.7 0.3 2-0.5 4.8 0.3 6.5-0.9-0.8-1.8-2-2-3.8-0.1-1.5 0.3-3.4-0.3-4.4z"/>
			<path id="Layer" class="s7" d="m76.8 42.8c0.7 0.1 1.3 1.2 2 1.7 0.3 2-0.5 4.8 0.3 6.5-0.9-0.8-1.8-2-2-3.8-0.1-1.5 0.3-3.4-0.3-4.4z"/>
			<path id="Layer" fill-rule="evenodd" class="s6" d="m80 44.5c0.8 1.6 1.9 2.8 3.2 3.7-0.1-1.8-0.7-3-1.3-4.3 1 0.6 2 1.2 2.6 2.2 0.2-0.8-0.3-1.6-0.7-2.1 2.4-0.2 2.8 3.2 2.1 5.6-0.4-0.7-0.4-1.8-0.8-2.4-0.3 2.1 0.4 4 1.3 5.3-2.2-0.5-3.4-1.9-4.6-3.4-0.2 0.5 0.3 1.1 0.3 1.7-1.3-1.2-2.1-3.5-2.1-6.3z"/>
			<path id="Layer" class="s7" d="m80 44.5c0.8 1.6 1.9 2.8 3.2 3.7-0.1-1.8-0.7-3-1.3-4.3 1 0.6 2 1.2 2.6 2.2 0.2-0.8-0.3-1.6-0.7-2.1 2.4-0.2 2.8 3.2 2.1 5.6-0.4-0.7-0.4-1.8-0.8-2.4-0.3 2.1 0.4 4 1.3 5.3-2.2-0.5-3.4-1.9-4.6-3.4-0.2 0.5 0.3 1.1 0.3 1.7-1.3-1.2-2.1-3.5-2.1-6.3z"/>
			<path id="Layer" fill-rule="evenodd" class="s10" d="m87.5 49.2c-0.1-0.9 0-1.7 0-2.8 1.9-1.9 3.5-4.3 5.2-6.5-0.4 1.2-0.5 2.4-0.9 3.4-0.4 1.1-1.4 2.1-2.1 3q-1.1 1.6-2.2 2.9z"/>
			<path id="Layer" class="s9" d="m117.1 120.2q-0.1-0.1-0.3-0.1-0.3 0-0.4 0-0.2 0-0.2 0c0.5-0.3 1-0.7 1.4-1.2 0.3-0.5 0.6-1 0.9-1.6q0.2-0.3 0.3-0.7c0.1-0.2 0.1-0.5 0.2-0.6 0.1 0.5 0.1 1 0.2 1.5q0 0.8 0.1 1.5l0.3-0.3q0.2-0.3 0.2-0.5c0.1-0.3 0.1-0.6 0-0.9q0-1.2 0.1-2.4c0.1-0.7 0.3-1.5 0.5-2.2q0.2-0.8 0.4-1.6c0.1-0.4 0.6-1 0.4-1.4-0.5 0.6-0.9 1.3-1.3 2q-0.2 0.5-0.4 1.1c-0.1 0.3-0.1 0.7-0.3 1-0.1-1 0.2-2.2 0.4-3.1 0.2-0.8 0.6-1.8 1.2-2.3q0.3-0.1 0.6-0.1 0.2 0 0.3 0 0.2 0 0.3 0c0.5 0 1 0 1.4-0.2v0.1c-0.6 1-1.3 2-1.7 3.1-0.1 0.4-0.3 0.7-0.4 1.1-0.1 0.9-0.3 1.8-0.3 2.7q0 1 0.1 2c0.1 0.7 0.3 1.3 0.4 2-1 0.5-2.3 1-3.5 1q-0.5 0-0.9 0.1z"/>
			<path id="Layer" fill-rule="evenodd" class="s4" d="m63.7 82.6c2.6-1.4 7.3-2.7 10.9-1.4-5.1 1.4-9.9 4.2-13.5 7.2-3.6 3.1-5.9 7.1-8.5 10.7-0.4-0.7-0.3-1.9-0.2-2.8 0.5-4.6 3.4-8.3 5.8-11.1-2.6 1.2-4.8 3.6-6.6 5.9 0.1-1.1 2-4.3 0.5-5.5 3.6-2.6 8.3-6.2 13.9-7.2 2.7-0.4 5.8-0.2 7.7 1.1-1.5 0.1-3.5 0-5 0.3-2.1 0.4-3.7 1.5-4.9 2.6l-0.1 0.1z"/>
			<path id="Layer" class="s5" d="m63.7 82.6c2.6-1.4 7.3-2.7 10.9-1.4-5.1 1.4-9.9 4.2-13.5 7.2-3.6 3.1-5.9 7.1-8.5 10.7-0.4-0.7-0.3-1.9-0.2-2.8 0.5-4.6 3.4-8.3 5.8-11.1-2.6 1.2-4.8 3.6-6.6 5.9 0.1-1.1 2-4.3 0.5-5.5 3.6-2.6 8.3-6.2 13.9-7.2 2.7-0.4 5.8-0.2 7.7 1.1-1.5 0.1-3.5 0-5 0.3-2.1 0.4-3.7 1.5-4.9 2.6l-0.1 0.1z"/>
			<path id="Layer" fill-rule="evenodd" class="s9" d="m31.4 103.4h0.1c0.4-0.1 0.5-0.1 0.7 0.3 0.2 0.2 0.4 0.5 0.6 0.8 0 0.2-4.7 1.7-5 1.8-1 0.3-2.1 0.7-3.2 0.9q-1.1 0.1-2.2-0.1c-0.4 0-0.9-0.1-1.1-0.5-0.1-0.3 0-0.6 0.2-0.9 0.4-0.6 1.2-0.9 1.9-1.2q1.1-0.6 2.3-1c0.1-0.1 0 0.1 0 0.1-0.2 0.4-1.5 0.6-0.9 1.3 0.4 0.3 1 0.4 1.5 0.3 0.6-0.1 1.1-0.3 1.6-0.5q1.1-0.5 2.3-0.8 0.6-0.2 1.2-0.5z"/>
			<path id="Layer" fill-rule="evenodd" class="s9" d="m21.4 108.3q-0.1-0.2-0.2-0.2c0.2 0 0.4 0.1 0.6 0.1q0.3 0 0.6 0.1 0.5 0 1.1 0c0.5 0 0.7 0.6 0.9 0.9q0.3 0.7 0.6 1.5 0.2 0.7 0.3 1.5c0.1 0.3 0.3 1.4 0 1.5-0.2-0.8-0.5-1.7-0.8-2.5-0.3-0.5-0.5-1.2-1.1-1.5l0.2 0.5q0.1 0.3 0.1 0.6 0.2 0.6 0.4 1.3 0.2 0.7 0.3 1.5c0.1 0.4 0.2 0.7 0.3 1.1 0 0.4 0 0.9 0.1 1.3q0 0.7 0 1.4c0 0.2 0 1.8 0.4 1.4 0.3-0.2 0.2-0.8 0.2-1.1 0-0.5 0-1.2 0.3-1.6 0 0.3 0.1 0.5 0.2 0.8q0.1 0.5 0.4 1 0.3 0.7 0.9 1.2c0.3 0.4 0.8 0.6 1.2 0.9-0.3 0.2-0.9 0.1-1.3 0q-0.7 0-1.4-0.1-0.8-0.2-1.5-0.4c-0.2-0.1-1-0.2-1-0.6 0-0.3 0.2-0.6 0.2-0.9q0.1-0.5 0.2-1 0.1-1 0.1-2c0-1.2-0.3-2.5-0.8-3.7q-0.4-0.9-0.8-1.7-0.2-0.4-0.5-0.8c0-0.1-0.1-0.3-0.2-0.5z"/>
			<path id="Layer" fill-rule="evenodd" class="s9" d="m131 100.5c0 1.3-0.3 2.3-1 3.4-0.3 0.4-0.6 0.9-0.9 1.3-0.3 0.6-0.4 1.1-0.7 1.7q-0.7 2-0.9 4.1-0.1 1.1 0 2.2c0 0.6 0.2 1.2 0.1 1.8-0.2 0.7-0.7 1.1-1.3 1.4q-0.8 0.3-1.6 0.4-0.3 0.1-0.7 0.1-0.3-0.1-0.5 0c-0.4 0-0.4 0.1-0.3 0.4 0.1 0.4 0.3 0.7 0.4 1.2 0.1 0.5 0.1 1-0.1 1.4-0.4 0.7-1.1 1.2-1.7 1.5-2.4 1.2-5.3 1-7.8 0.5q-1.3-0.2-2.6-0.6c-0.4-0.1-1.2-0.5-0.8 0.3 0.3 0.6 0.9 1.5 0.8 2.2q-0.1 0.8-0.7 1.4c-0.8 0.8-1.9 1.1-2.8 1.7q-3.1 1.7-6.5 3c-2.2 0.8-4.5 1.3-6.7 2-2.5 0.7-5 1.1-7.4 1.5-6 0.9-12 1.3-18.1 1.1-5.9-0.3-12-0.9-17.8-2.2q-3.2-0.7-6.3-1.6c-1.8-0.6-3.6-1.4-5.4-2.2-1.2-0.6-2.7-1-3.8-1.9-0.8-0.6-1.8-1-2.4-1.9q-0.3-0.4-0.3-0.7c-0.1-0.4 0.1-0.6 0.2-1q0.2-0.4 0.4-0.9 0.3-0.6 0.5-1.2c-0.3 0.1-0.5 0.2-0.8 0.2q-0.5 0.2-1.1 0.3c-1.3 0.4-2.7 0.7-4.1 0.8-1.3 0.1-2.6 0-3.9-0.3-0.6-0.1-1.3-0.3-1.8-0.6-0.2-0.1-0.5-0.3-0.7-0.5q-0.3-0.2-0.6-0.5c-0.3-0.5-0.2-1.1-0.1-1.6 0-0.2 0.2-1.8 0.3-1.7-0.1-0.1-0.4-0.1-0.6-0.1q-1.1-0.1-2.1-0.4c-0.3-0.1-0.6-0.2-0.9-0.4-0.3-0.2-0.6-0.4-0.8-0.7-0.2-0.4-0.2-1-0.1-1.4 0.1-0.3 0.2-0.5 0.3-0.8 0.1-0.7-0.1-1.3-0.1-1.9q-0.2-1.6-0.6-3c-0.3-1.2-0.7-2.3-1.3-3.4-0.6-1-1.3-2-1.6-3.1-0.1-0.5-0.1-1.3 0-1.8 0.3-1 0.9-1.7 1.7-2.4 1.5-1.3 3.5-2.1 5.7-2.8 2.2-0.7 4.5-1.4 6.8-1.9 3.6-0.7 7.4-1.2 11-0.8 0.2 0 1.9 0.2 1.9 0.5-0.2-2.3-1.2-6.5-0.4-9.5 0-0.3 0.2-0.5 0.3-0.8-0.1-0.2 0-0.3 0.1-0.4 0.5-2.4 1.6-4.7 2.1-7.1 0.6-2.4-0.1-5-0.1-7.5v-3.9c0.2-1.2 0.5-2.1 0.9-3l0.1-0.2c2-3.8 4.8-6.7 7.6-9.7-2.6-1.1-5.2-2.2-7.9-3.3-0.2 0.1 0 0.5-0.2 0.6-0.9 1.2-4.3 1.5-6.2 0.7-1.5-0.6-3.3-1.7-5-2.6q-0.4-0.2-0.8-0.5-1.2-0.6-2.4-1.3-0.5-0.2-1.1-0.5-0.2-0.1-0.5-0.3c-0.1 0-0.3-0.1-0.3-0.2-0.1-0.1 0-0.3 0-0.4q0-0.4 0-0.8 0.1-0.7 0.1-1.5c0.1-0.1-0.9-0.4-1-0.5-0.4-0.2-0.5-0.3-0.6-0.7-0.3-1-0.4-1.9-0.1-2.9 0.2-0.8 0.8-1.6 1.6-2.1 0.4-0.2 0.9-0.4 1.3-0.3 0.4 0.1 0.8 0.4 1.2 0.5 0.5 0 1.9-3.7 2-4.2q0.5-1.3 0.9-2.6c0.4-1.3 0.8-2.6 1.1-3.9q0.4-1.9 0.5-3.9c0.1-1.8 0.3-3.5 0-5.2-0.2-1.7-0.7-3.4-1.5-4.9-0.1-0.3-0.4-0.6-0.2-0.9 0.2-0.2 0.6-0.3 0.8-0.5 0.9-0.4 1.8-0.7 2.6-1.1 0.6-0.2 1.1-0.4 1.6-0.5q1-0.3 1.9-0.4c4-0.5 8.2 0.4 11.7 2.2 1.7 0.9 3.2 2 4.4 3.4q1 1 1.7 2.3c0.8 1.4 1.3 2.8 1.4 4.4-2.3 0.6-4.2 1.7-5.6 3.2-4.5 4.4-6.6 11.2-8.2 18.5 3.7 1.6 7.6 3.1 11.5 4.6 1.4-2 1.9-4.8 4.8-5.3 0.8-1.9 1.7-3.9 2.5-5.8-1.9-3.6-3.4-11.6-0.2-14.9 0.1-0.7 0.1-1.5 0.3-2.2 0.2-0.6 0.5-1.1 0.9-1.6 0.9-1.1 2.1-1.8 3.4-2.2 1.6-0.4 3.3-0.5 5-0.6q2.1-0.2 4.3-0.4 2.5-0.3 3.4-2.8l0.6 0.6q0.3 0.4 0.5 0.7 0.4 0.6 0.7 1.2c0.1 0.5 0.2 0.9 0.4 1.3 0.1-0.5 0.4-1 0.6-1.5 0.2-0.5 0.4-1.1 0.5-1.6 0.1-0.3 0.2-0.7 0.1-0.9 0.9 0.4 1.6 1.2 2.1 2q0.6 0.9 1 1.9 0.2 0.5 0.3 1.1c0.1 0.2 0.1 0.7 0.3 0.8 0.3-0.3 0.6-0.9 0.8-1.3 0-0.1 0.2-0.6 0.2-0.7 0.5 0.8 1.3 1.7 1.5 2.7q0.3 1.5 0.2 3c-0.1 0.7-0.3 1.4-0.5 2.1q-0.1 0.8-0.3 1.6c-0.1 0.4 0 0.7 0 1.2 0.1 1 0.3 2 0.1 3 0 0.5-0.5 1.1-0.5 1.5-0.1 0.7 0.3 1.6 0.3 2.3-0.1 0.9-0.7 1.7-0.8 2.5 0 0.8 0.5 1.6 0.5 2.4 0 1.8-0.9 3.1-1.3 4.8 0.6 0.6 1.6-0.3 1.8-0.4 0.1 2.1-0.7 3.5-2.1 4.1 0.1 1 0.1 2 0 2.9 0 1.1-0.1 1.9 0 2.8q0 1.2 0.4 2.4 0.1 0.6 0.4 1.1c0.1 0.3 0.4 0.7 0.5 1-0.2 0.1-0.4 0.1-0.7 0.2-0.1 0-0.5 0-0.5 0.1 0 0.2 0.4 0.6 0.5 0.7q0.5 0.7 1 1.4 0.6 0.8 1.2 1.6 0.3 0.4 0.6 0.8c0.3 0.3 0.4 0.4 0.8 0.5 1.2 0.5 2.4 1 3.7 1.5q0.7 0.3 1.6 0.6c0.6-0.5 1-1.1 1.5-1.7 0.5-0.7 1-1.5 1.9-1.9 1.2-0.6 2.5-0.4 3.8-0.2 0.5 0 0.9 0.1 1.4 0.2 0.6 0.2 1.2 0.4 1.7 0.7q0.4 0.3 0.7 0.6 0.1 0.2 0.2 0.4l0.2 0.4c0.5 0.3 1.1 0.5 1.4 1.1v0.1c0.3 0 0.4 0.3 0.5 0.6 1.9 0.2 2.9 1.1 3.6 2.4 2.4 0.5 3.6 2.4 3.2 5.3 1.8 0.6 3.4 1.4 5.2 2 1.1 0.4 2.4 0.8 3.4 1.4 0.7 0.3 1.4 0.4 2.1 0.7 0.6 0.2 0.9 0.1 1.1 0.7 0.5 1.4 0.6 3 0.5 4.4 0 0.9-0.2 1.3-0.7 2-0.3 0.6-0.7 1.5-1.2 2-1.4 1.2-2.4 3.4-4.8 3.8-1.3-2-1.7-4.4-3.4-6-1.7-1.6-4.1-2.4-6.3-3.7 0.1 0-0.4 1.4-0.5 1.5q-0.2 0.8-0.6 1.5-0.7 1.3-1.6 2.5c-1.2 1.6-2.8 2.9-4.6 3.9-0.8 0.4-1.6 0.7-2.4 1.2-0.9 0.5-1.9 1.1-2.7 1.8-0.9 0.7-1.7 1.4-2.6 2-0.1 0.1-0.4 0.2-0.4 0.4-0.2 0.3-0.1 0.6-0.1 0.9-0.1 0.9 0 1.8 0 2.8-0.1 3.7-0.4 7.5-0.6 11.3q-0.1 0.9-0.1 1.9 0 0.5-0.1 1c0 0.3-0.1 0.7 0 1 0.2 0 0.5-0.2 0.8-0.2q0.6-0.2 1.2-0.4 1.1-0.4 2.3-0.9c0.5-1.4-2.1-3.5-0.1-4.3 0.2-0.1 0.5-0.1 0.7-0.2 0.3-0.2 0.3-0.6 0.4-0.9 0.1-0.6 0-1.2-0.2-1.8-0.1-0.6-0.2-1.2-0.4-1.7q-0.2-0.7-0.4-1.5c-0.4-1.6-0.7-3.6 0.9-4.7 2-1.4 4.5-1.5 6.8-1.5q2 0.1 3.9 0.4c1.3 0.1 2.5 0.5 3.7 0.6 1.6 0.3 3 0.7 4.6 1 0.9 0.3 1.8 0.6 2.7 0.8q1.8 0.5 3.4 1.3c1.1 0.6 2.1 1.1 2.9 2 0.3 0.3 0.5 0.7 0.7 1.1 0.2 0.4 0.4 0.8 0.4 1.3zm-90.2-7.9q0 0 0 0 0 0 0 0zm88.4 9.1c0-0.1-0.3 0-0.4 0q-0.2 0-0.2 0-0.4 0-0.7 0-2.8-0.1-5.6-0.5-1.4-0.2-2.7-0.5c-0.9-0.2-1.8-0.5-2.7-0.6-0.7-0.2-1.5-0.5-2.3-0.7-0.7-0.3-1.5-0.7-2.1-1.1-0.5-0.3-1.4-0.8-1.3-1.5 0.2-0.3 0.6-0.4 1-0.4 0.4-0.2 0.9-0.1 1.4 0 0.2 0 0.5 0.1 0.6 0.3-0.4 0-0.7 0.2-0.8 0.6-0.1 0.7 0.6 0.9 1.1 1.1 1.2 0.5 2.4 0.8 3.6 0.9l0.4-0.5c0.4-0.5 0.9-0.8 1.4-1 0.2-0.2 0.6-0.4 0.9-0.4-0.8-0.2-1.5-0.6-2.2-0.9q-1.3-0.4-2.5-0.6c-1.7-0.2-3.4-0.2-5 0.1-0.3 0.1-0.6 0.2-0.7 0.4-0.1 0.2-0.1 0.3 0 0.4q0.1 1.2 0.2 2.4c0 0.1 2.5 0.4 2.7 0.4q1.3 0.3 2.7 0.7 2.2 0.5 4.3 1.5c2.2 1 4.6 2.2 5.8 4.3 0.4 0.6 0.1 1-0.2 1.5-0.2 0.3-0.3 0.6-0.4 0.8-0.2 0.4-0.5 0.7-0.7 1-0.8 1.5-1.5 3-1.8 4.7 0 0.2-0.1 0.4-0.1 0.6q0 0.5 0 0.9c1.1 0.1 2.2-0.2 3.1-0.7 0.4-0.2 0.2-0.8 0.2-1.2q-0.1-0.8-0.1-1.5c0-1 0-1.9 0.2-2.9q0.2-1.3 0.6-2.5 0.4-1.1 0.9-2.2c0.4-0.7 0.8-1.3 1.1-2 0.1-0.2 0.6-0.7 0.3-0.9zm0.2-1.4c0 0-0.7-1.1-0.7-1.2q-0.5-0.6-1.1-1c-0.8-0.5-1.7-0.9-2.6-1.3-2.4-0.8-4.7-1.4-7.1-1.9q-2.2-0.5-4.5-0.8c-1.9-0.2-3.8-0.4-5.7-0.5-1.1 0-2.2 0-3.2 0.3-1 0.2-2.2 0.9-2.4 1.9-0.1 0.8 0 1.6 0.2 2.3 0.3 0.8 0.6 1.6 0.8 2.4q0.4 1.4 0.4 2.8l0.6-0.3 0.8-0.3q-0.1-1.1-0.4-2.1c-0.1-0.5-0.2-1-0.4-1.5 0-0.2-0.1-0.4-0.1-0.6 0.1 0 0.2 0.2 0.3 0.3 0.5 0.2 0.9 0.6 1.4 0.7q0.2 0.1 0.5 0.3c0.3 0.1 0.3 0.2 0.3 0.5q0 0.7 0.1 1.4c0 0.1 0 0.6 0.1 0.6 0.1 0.1 0.2 0 0.3 0q0.2 0 0.4 0.1c0-0.3-0.1-0.7-0.1-1q-0.1-0.5-0.2-0.9c0-0.3 0.4-0.1 0.6-0.1q0.3 0.2 0.7 0.3c0.2 0.1 0.2 0.1 0.2 0.3q0 0.4 0 0.8c0 0.1-0.1 0.5 0 0.5 0.1 0.1 0.3 0.1 0.5 0.1q1 0.2 2.1 0.5 1.4 0.3 2.7 0.6c0.7 0.3 1.4 0.5 2.2 0.8 0.7 0.3 1.3 0.7 2 0.9 0.5 0.1 1.6 0.1 1.7-0.6 0.1-0.2-0.1-0.5-0.2-0.6-0.2-0.2-0.4-0.3-0.6-0.5 0.9 0.1 5.4 2.1 4.1 3.5q-0.3 0.2-0.5 0.3c-0.4 0.2-1 0.1-1.5 0.1q-1.3 0-2.5-0.3c-0.8-0.3-1.5-0.7-2.2-1q-1.2-0.4-2.3-0.8c-0.8-0.3-1.6-0.6-2.4-0.8q-1.3-0.3-2.7-0.5c-1.5-0.2-2.9-0.3-4.4 0.1-0.3 0.1-0.6 0.2-0.9 0.3-0.5 0.5-0.7 1.7-0.2 2.3 0.3-0.4 0.5-1 1.1-1-0.4 1.1 0.5 1.6 1.2 2-1.7 1.4-4.1 2.3-6.2 3.1-2.4 0.8-5 1.3-7.4 1.8-5.1 1-10.3 1.6-15.5 1.7-3.2 0-6.1 0.1-9.4 0-4.4-0.1-9-0.6-13.3-1.4q-3.2-0.6-6.4-1.4-1.5-0.4-3-0.9-0.7-0.3-1.5-0.6-0.7-0.3-1.5-0.6-0.4-0.3-0.8-0.5c-0.7-0.4-1.5-0.7-2-1.2 0.6-0.4 1.6-0.9 1.2-2 0.3-0.1 0.6 0.2 0.8 0.4 0.2 0.2 0.2 0.6 0.5 0.3 0.3-0.4 0.2-1 0.1-1.4-0.2-0.4-0.7-0.7-1.1-0.8-1.1-0.4-2.3-0.3-3.4-0.4 0-0.3 0.4-0.4 0.5-0.7-0.2-0.4-0.6-0.8-0.9-1.2-0.2-0.2-0.6-0.6-0.6-0.8 0-0.5 0.9-0.7 1.2-0.9 0.4-0.2 1-0.5 1.5-0.5 0.6 0 0.9 0.4 1.3 0.8l0.1 0.2c0.2 0.2 0.1 0.6-0.1 0.9-0.2 0.3-0.3 0.7 0 1 0.1 0.1 0.9 0.8 1.1 0.7 0.2-0.1 0.2-1.2 0.2-1.5v-0.2c0-1.9 1.5-4.3 1-6.2-0.2-0.6-1.2-1.1-1.7-1.4-0.7-0.5-1.8-0.4-2.6-0.5-2.1-0.1-4.3 0.1-6.5 0.4-2.3 0.3-4.6 0.8-6.9 1.3-1.2 0.3-2.4 0.6-3.5 1-1.2 0.4-2.2 1-3.3 1.6-0.8 0.4-1.5 1-2.2 1.7-0.2 0.2-0.5 0.6-0.3 0.8 0.1 0.1 0.5 0.1 0.7 0.1q0.3 0 0.6 0.1 1.4 0.1 2.7 0c1.4-0.1 2.7-0.1 4.1-0.4q0.5-0.2 1.1-0.4c0.3-0.1 0.7-0.1 0.3-0.5q-0.6-0.5-1.4-0.8c-0.7-0.2-1.4-0.3-2.1-0.3 0.6-0.5 1.2-1 2-1.4q1.2-0.6 2.4-1 1.9-0.6 3.9-0.8 1.2-0.1 2.3 0c0.5 0 0.9 0.1 1.4 0.2 0.9 0.2 2.4 0.8 2.1 2q-0.1 0.7-0.2 1.4c0 0.2-0.1 0.5 0.1 0.5 0.2 0.1 0.4-0.1 0.6-0.3 0.4-0.5 0.9-1 1.1-1.7 0.1-0.3 0.2-0.7 0.1-1.1-0.2-0.8-1-1-1.6-1.2 0.6-0.3 1.1-0.2 1.7-0.2 0.6-0.1 1.2-0.1 1.8 0 0.6 0.1 1.2 0.3 1.7 0.7 0.6 0.5 0.4 1 0.3 1.6-0.3 1.3-1.6 2-2.6 2.5-1.6 0.7-3.5 1.2-5.2 1.4-0.9 0.1-1.9 0.3-2.8 0.5q-1.4 0.4-2.7 0.8c-2.2 0.6-4.4 1.5-6.2 2.9q-0.7 0.5-1.2 1.1c-0.3 0.3-0.5 0.6-0.4 1 0.2 0.8 0.9 1.5 1.3 2.1q0.1 0.2 0.2 0.4 0.5 0.7 0.8 1.5c0.6 1.4 1 3 1 4.6q-0.1 1-0.3 2-0.1 0.5-0.2 1c-0.1 0.2-0.3 0.5-0.1 0.7 0.1 0.2 0.3 0.3 0.5 0.4q0.4 0.3 0.8 0.4 0.9 0.4 1.8 0.5c0.9 0.2 1.9 0.2 2.9 0.2 1.2 0 2.5-0.2 3.8-0.6q0.6-0.1 1.2-0.3 0.3-0.1 0.5-0.2c0.1-0.1 0.2-0.2 0.3-0.4q0.1-0.1 0.1-0.3l-0.1-0.2q-0.6 0.3-1.3 0.5-0.3 0-0.6 0.1c-0.2 0-0.4 0.1-0.5 0.1 0-0.3 0.4-0.6 0.5-0.8 0.3-0.3 0.4-0.7 0.6-1 0.2-0.7 0.4-1.5 0.4-2.3 0-1.2-0.2-2.4-0.4-3.6-0.1-1.1-0.3-2.2-0.7-3.3-0.2-0.4-0.3-1-0.7-1.3-0.3-0.3-0.8-0.4-1.2-0.6-0.4-0.1-0.3-0.3 0-0.5 0.2-0.1 0.5-0.2 0.7-0.3 0.7-0.3 1.6-0.5 2.3-0.4 0.6 0.2 1.2 0.5 1.6 0.9 0.2 0.2 0.2 0.4 0.4 0.4 0.2 0 0.6-0.2 0.7-0.3 0.2-0.2 0.1-0.5 0-0.7-0.1-0.3-0.3-0.4-0.6-0.5l-0.2-0.1-0.1-0.1c0-0.2 0.4-0.3 0.6-0.3 0.2-0.1 0.5-0.2 0.8-0.2 0.5 0 1.2 0 1.8 0.1 0.3 0 0.6 0.2 0.7 0.5 0.2 0.3 0.2 0.8 0 1.1-0.3 0.5-0.7 0.7-1.2 0.9-0.7 0.3-1.3 0.7-2 1 0.6 2.1 0.7 4.4 0.7 6.6q0 2.5-0.4 5c-0.2 1.4-0.8 2.8-1.5 4.1l0.6 0.5q0.4 0.3 0.8 0.6c0.9 0.6 1.9 1.1 2.8 1.6 1.1 0.6 2.3 1 3.4 1.5q0.7 0.3 1.4 0.5 1.5 0.6 3 1c0.9 0.3 1.6 0.7 2.5 0.9q1.6 0.4 3.2 0.7c5.9 1.3 12 1.8 18 2 5.3 0.2 10.5-0.1 15.7-1 5-0.8 9.9-1.7 14.7-3.5 1.7-0.6 3.3-1.4 4.9-2.2 1.3-0.5 2.4-1.2 3.5-2 0.2-0.2 0.6-0.5 0.7-0.7 0-0.2-0.3-0.8-0.4-1q-0.3-1.1-0.6-2.2c-0.4-1.2-0.8-2.3-0.8-3.6q-0.1-2 0-4 0.1-1.3 0.3-2.6 0.1-0.6 0.3-1.2c0-0.3 0.2-0.6 0.1-0.9-0.1-0.3-0.9-0.4-1.2-0.6q-0.6-0.3-1.2-0.7c-0.3-0.2-1-0.7-1-1 0-0.3-0.1-0.3 0-0.6 0.5-1.1 2-0.9 2.9-0.8 0.2 0.1 1.5 0.2 1.5 0.4l-0.8 0.5q-0.4 0.3-0.6 0.8l-0.1 0.1 0.2 0.2c0.2 0.1 0.4 0.1 0.6 0.1 0.2-0.1 0.3-0.2 0.4-0.2 0.4-0.4 0.9-0.6 1.3-0.8 0.2 0 0.3-0.2 0.5-0.2 0.2-0.1 0.5 0.1 0.6 0.1q1.2 0.5 2.4 0.8c-0.6 0.1-1.4 0-1.7 0.7-0.2 0.8-0.4 1.7-0.6 2.6q-0.4 1.9-0.7 3.9c-0.1 1-0.3 2 0 3 0.2 0.7 0.4 1.4 0.8 2 0.1 0.2 0.6 0.6 0.3 0.8-0.2 0.1-0.9-0.2-1.1-0.3q-0.4-0.1-0.8-0.2c-0.7-0.1 0.1 0.7 0.3 0.8 0.3 0.2 0.6 0.2 0.9 0.3 1.2 0.3 2.3 0.6 3.5 0.7 1 0.2 1.9 0.3 2.9 0.3 0.8-0.1 1.7-0.3 2.4-0.6 0.3-0.1 0.6-0.3 0.9-0.4 0.3-0.1 0.6-0.3 0.7-0.6 0.1-0.2 0-0.3 0-0.5-0.3-1.7-0.8-3.5-0.3-5.2 0.2-0.8 0.4-1.6 0.7-2.4q0.9-2.3 2.4-4.3l0.1-0.2-0.1-0.2c-0.3-0.3-0.7-0.6-1-1q-0.4-0.5-0.9-0.9-0.9-0.6-1.9-1.1-1.1-0.5-2.2-0.9c-1-0.3-2-0.8-3.1-1-0.8-0.2-1.6-0.2-2.3-0.3q-2.5-0.4-4.9-1.3-1.2-0.4-2.3-1c-0.6-0.3-1.5-0.7-2-1.2-0.8-1-0.8-2.3 0.5-2.9 0.9-0.5 1.8-0.5 2.8-0.5 0.5 0 1 0.1 1.5 0.3-0.1 0.1-0.3 0.1-0.5 0.1q-0.2 0.1-0.5 0.3c-0.3 0.3-0.5 0.6-0.6 1-0.1 0.6 0.1 1.3 0.6 1.8 0.3 0.4 0.9 1.2 1.4 1.2 0.2-0.6 0-1.4-0.1-2 0-0.3-0.1-0.7-0.1-1 0-0.2 0.1-0.3 0.3-0.4 1.5-0.7 3.1-0.9 4.6-0.8 0.9 0 1.7 0.1 2.6 0.3 2.4 0.4 4.9 1.1 6.6 3 0-0.1-0.7 0.1-0.8 0.1-0.4 0.1-0.7 0.1-1 0.2-0.3 0.1-2.2 0.7-1.9 1.2 0 0.1 0.6 0.1 0.7 0.1q0.5 0.1 1 0.2 0.8 0.1 1.7 0.2c0.8 0.2 1.6 0.3 2.3 0.3 1.4 0 2.7 0 4-0.2zm-6-2.1q0 0 0 0 0 0 0 0zm-80.6-6.4c1-1 1.7-2.4 3-3.1 1.8-3 3.4-6.7 4.6-10.1-0.8 1.2-1.8 2.3-2.7 3.4-0.8 1.1-1.6 2.5-3 2.9 1.9-7.1 5.3-12.8 8.8-18.2-1.6 0.5-2.8 2-3.7 2.9 0-1.3 0.9-2.7 1.1-4 0.2-1.1 0-2.1 0.1-3 0.3-2.3 1.2-3.8 2.2-5.3-4.6 2.2-6.2 7.9-7.4 13.2 1.3-1.2 2-2.9 2.8-4.7-0.1 5.8-2.4 9.9-4.4 13.7-0.6 1.2-1.5 2.5-1.8 3.6-0.7 2.7 0.3 5.9 0.4 8.7zm18.3-3.4c3.6-3 8.4-5.8 13.5-7.2-3.6-1.3-8.3 0-10.9 1.4v-0.1l0.1-0.1c1.2-1.1 2.8-2.2 4.9-2.6 1.5-0.3 3.5-0.2 5-0.3-1.9-1.3-5-1.5-7.7-1.1-5.6 1-10.3 4.6-13.9 7.2 1.5 1.2-0.4 4.4-0.5 5.5 1.8-2.3 4-4.7 6.6-5.9-2.4 2.8-5.3 6.5-5.8 11.1-0.1 0.9-0.2 2.1 0.2 2.8 2.6-3.6 4.9-7.6 8.5-10.7zm-7.8 19.3c-1.9-1.4-3.5-3.9-3.8-6.9-0.3-3 0.2-5.8 0.9-8.2-1.6 1.8-2.6 4.1-3.4 6.7l-0.2-0.5q-0.1-0.3-0.2-0.6c-0.1-0.4 0-0.8-0.1-1.2 0-0.8 0.1-1.7 0.2-2.5 0.2-0.8 0.3-1.7 0.6-2.5 0.2-0.6 0.4-1.2 0.7-1.8 0.3-0.5 0.8-1.1 1.2-1.6l0.5-0.6c0.1-0.1 0.3-0.4 0.4-0.5-0.4 0-0.8 0.3-1 0.5q-0.5 0.3-1 0.8-1 0.9-1.8 2c-0.6 0.7-1.2 1.4-1.6 2.3-1.1 2-0.8 4.6-0.1 6.6v0.1c0.1 0.4 0.4 0.8 0.7 1.1q0.5 0.6 1 1.1 0.3 0.2 0.6 0.4c1.1 2.6 2.6 5.8 6.4 5.3zm-9.6 0.9c2.3 0.9 5.1 1.9 7.7 2.2-3.2-1-5.2-3-6.7-5.7-0.9-0.4-1.4-1.2-2.1-1.9 0.1 0.5-0.3 0.5-0.1 0.8 0.8 0.4 1.8 0.6 1.9 1.4 0.1 0.8-1.2 1.9-0.7 3.2zm1.6-42.9c2.6-4.4 4.4-11.3 12-10.1 0.7 0.1 1.3 0.4 2.1 0.6-1.1 0.1-3 0.2-4.4 0.5-0.5 1.3-1.1 3-1.2 4.4 0.2-0.1 0.4-0.3 0.6-0.3 5.3-0.9 9.2 1.6 11 4.9-4.4-1.4-8.7 0.1-10.8 2.6-0.4 0.5-1 1.3-0.9 1.9 1.1-1.3 2.8-2.4 4.7-2.5-2.4 2-3.9 5-4.9 8.3 1.5-1 3.6-2.5 6.3-1.7-1.7 1-3 2.9-3.5 4.8 2.5-1.8 5-3.6 8.9-4.1-0.3-1.3-1.3-2-2.2-2.6 4 0.6 6.8 2.4 9.2 4.6q1.5 0.5 2.5 1.4c-0.2-0.2-0.1-2.7-0.2-3.1q-0.2-1.3-0.8-2.4c-0.5-0.9-1-1.1-1.6-1.7q-0.4-0.3-0.6-0.8c-0.3-0.4-0.5-0.8-0.9-1.1-0.7-0.8-1.5-1.4-2.2-2.1-1.5-1.7-2.4-3.7-2.3-6 1.2 1.8 2.7 3.2 4.6 4.3-0.3 0.3-1 0.6-1.6 0.3 0.8 1.1 1.9 1.8 2.9 2.6-0.5-5.2-3-8.3-6.8-10.2 5.7 1.5 9.5 5 9.8 11.9 1.2 1.7 2.5 3.5 3.6 5.3-0.6-5.1-2.3-10.1-4.9-13.8-0.7-1.1-1.7-2.4-2.5-2.9-0.4-0.3-1.1-0.4-1.7-0.7-2.9-1.2-5.5-2.3-8.2-3.5-2.1-0.8-3.5-1.6-6.4-1.4-3.1 0.3-4.3 1.8-6.1 4.1-1.7 2.2-4.1 4.8-3.5 8.5zm37.6-2.1c-1.3-0.5-2.4-1.1-3.7-1.6-0.1 0.1-0.1 0.3-0.3 0.4-0.1 0.1-0.3 0-0.4 0-0.2-0.1-0.5-0.2-0.6 0q2.9 5.5 3.7 13.1c1.4 0.6 3.3 0.9 5.5 0.8-1.1-4.2-2.6-8.8-4.2-12.7zm5.7 12.4c1.7-2.2 1.4-6.8 0.6-9.7-1.3-0.6-2.8-1.4-4.2-1.6 1.5 3.4 2.6 7.4 3.6 11.3zm-33.5-25.5q2.2 0.9 4.4 1.8 2.1 0.9 4.3 1.8 2.2 0.9 4.4 1.7 2.1 0.9 4.3 1.8 2.2 0.9 4.3 1.8 2.2 0.9 4.4 1.8 2.1 0.9 4.3 1.8 2.1 0.9 4.3 1.8 1.7 0.8 3.4 1.5c0.4 0.2 0.9 0.6 1.4 0.5 0.1-0.7-0.8-0.7-1.1-0.9-12.6-5.2-25-10.5-37.5-15.7q-0.5-0.2-1.1-0.4-2.1-0.9-4.3-1.8-2.1-0.9-4.3-1.8-1-0.4-2.1-0.8c-0.4-0.2-0.8-0.3-1.1-0.4q-0.6-0.3-1.1-0.5-0.2-0.1-0.5-0.2c-0.1-0.1-0.1-0.2-0.2-0.2-0.2-0.1-0.6-0.3-0.8-0.2-0.1 0.1 0 0.3 0.1 0.4 0.1 0.2 0.3 0.3 0.4 0.4q0.5 0.2 0.9 0.4 0.3 0.1 0.7 0.2h0.1q0.3 0.1 0.6 0.2 0.5 0.3 1 0.5 1.1 0.5 2.2 0.9 2.1 0.9 4.3 1.8 2.2 0.9 4.3 1.8zm-15.4-33.6q0.9 0.1 1.8 0.4c1.4 0.4 2.8 1.1 4.1 1.9q1.1 0.8 2 1.7 0.3 0.2 0.5 0.5c0.1 0.1 0.2 0.3 0.4 0.4 0.2 0 0.4-0.2 0.6-0.4q0.5-0.6 1.1-1.2c0.7-0.7 1.5-1.4 2.5-1.8 0.9-0.5 1.9-0.9 2.9-1.3 0.6-0.2 0.5-0.4 0.2-0.9q-0.3-0.7-0.7-1.4c-0.6-0.9-1.4-1.7-2.3-2.4-1-0.9-2.1-1.6-3.3-2.2-2.9-1.5-6.2-2.6-9.6-2.2-0.9 0.1-1.7 0.3-2.6 0.6-0.7 0.3-1.7 0.7-2.3 1.3-0.2 0.2-0.2 0.3-0.1 0.6q0.2 0.6 0.4 1.3 0.3 1.3 0.4 2.6 0.2 1.2 0.2 2.4c0 1.8-0.3 3.5-0.6 5.3-0.3 1.8-0.8 3.5-1.3 5.3q-0.4 1-0.7 2.1c0.1-0.3 0.4-0.6 0.5-0.9 0.2-0.3 0.3-0.6 0.5-0.9q0.4-1.1 0.8-2.2c0.7-2.1 1.3-4.4 1.7-6.7 0.1-0.7 0.2-1.3 0.3-2.1 0-0.1 2 0.1 2.2 0.1q0.2 0.1 0.4 0.1zm-0.1 22.1c-1.2-0.5-2.4-1-3.6-1.5q-1.7-0.7-3.5-1.3c-0.5-0.2-1.1-0.6-1.6-0.7-0.3 0.5-0.9 1.2-0.8 1.8 2.8 1.2 5.6 2.4 8.5 3.5 0.3-0.6 0.7-1.1 1-1.8zm1.2 3.1c17.9 7.6 35.9 15 54 22.4 0-1 0.8-1.1 1-1.9-3.9-1.4-7.8-3.1-11.6-4.7-6.5-2.6-13-5.2-19.6-7.8-3.5-1.5-7.4-3.1-11.1-4.6-2.5-1-5.8-2.2-8.5-3.3-1.8-0.8-3.3-2-4.2-0.1zm17 3.6c6.2 2.3 12.3 4.8 18.4 7.3q0.1 0 0.2-0.1 0 0-0.2 0c-5.4-3.5-11-6.7-15.8-10.9-1.1 1-1.9 2.3-2.6 3.7zm5-5q1 1.4 2.2 2.5c0.1 0.1 0.3 0.5 0.5 0.3 0.1-0.2 0-0.7 0-0.9 0-0.7-0.1-1.4 0-2-0.1-1.3 0.2-2.3 0.2-3.5q-0.5-0.6-1.1-1.1c-0.6 1.6-1.3 3-1.8 4.7zm0.8-10c0.6-2.7-0.3-5.9 0.8-8.4 0.3 0.5 0.1 1.5 0.5 1.9 0.3-2.1 1.4-3.5 2.5-4.8-0.7-0.6-2.2-0.1-3.1 0-2 2.3-2.2 8.2-0.7 11.3zm7.5 3.4c-1 1.3-1.7 3.8-1.3 6 0.1-2.2 1.9-3.7 1.3-6zm-0.3 10c0.1 0.5 0.2 1 0.4 1.4 0-0.3 0.2-0.5 0.2-0.9 0-0.5 0.1-0.8 0.3-1.3 0.2-0.3 0.3-0.7 0.4-1.1q0.3-0.5 0.5-1c0.1-0.1 0.3-0.8 0.4-0.8-0.8 0.2-1.1 1.1-1.7 1.7 0.1-1.2 0.7-1.8 1.1-2.7-0.5-0.5-0.5-1.4-1-2-0.5 1.2-0.7 2.5-0.8 3.7-0.1 0.8 0 2 0.2 3zm-6.1-26.2c0.9-0.5 1.7-1.1 2.6-1.6 0.2 0.4 0.5 0.6 0.7 0.9 0.7-0.8 1.8-1.8 2.9-1.9-0.2 0.6-0.6 1.3-0.5 1.7 0.7-0.9 1.8-1.5 3-2-0.3 0.7-0.6 1.3-0.7 2.2 2.3-1.4 5.2-2.1 6.7-4.3-2.5 0.9-6.2 1.1-8.8 1.6q0.6-0.3 1-0.8c-3.5 0.1-6.2 1.6-6.9 4.2zm12 0.1c1.1 0 2.1 0.1 2.9 0.4 1.1-1.3 1.5-3.7 1.2-6.1-0.7 2.6-2.4 4.2-4.1 5.7zm4.2 0.8c1.5 0.5 2.3 1.6 3.3 2.6 1.2-0.6 1.8-1.8 2.7-2.6-0.3 1.2-1.1 2.6-1.3 3.7 1.8-1.7 3.2-4.1 3-7.5-0.6 0.9-1.3 1.7-2.2 2.2 0.1-2.3-0.7-3.9-1.6-5.2 0.3 2.2-0.1 5.5-1.2 6.6 0-1.1 0-2.9-0.6-3.7-0.2 1.7-1.4 2.5-2.1 3.9zm4.6 37.8c0.2 0.1 0.4 0.2 0.7 0.3 0.2-0.9 0.3-1.9 0.4-2.9-0.3 0-0.5 0-0.6-0.1-0.2 0.8-0.3 1.8-0.5 2.7zm-3.8-4.5c0 1.3 0.4 2.2 0.7 3.2 0.5 0.3 1.1 0.5 1.6 0.7 0.5-0.8 1.1-1.5 1.7-2.1-1.6-0.4-2.9-1-4-1.8zm-1.7-7.6c0 2.8 0.8 5.1 2.1 6.3 0-0.6-0.5-1.2-0.3-1.7 1.2 1.5 2.4 2.9 4.6 3.4-0.9-1.3-1.6-3.2-1.3-5.3 0.4 0.6 0.4 1.7 0.8 2.4 0.7-2.4 0.3-5.8-2.1-5.6 0.4 0.5 0.9 1.3 0.7 2.1-0.6-1-1.6-1.6-2.6-2.2 0.6 1.3 1.2 2.5 1.3 4.3-1.3-0.9-2.4-2.1-3.2-3.7zm-0.4-5.1q1.4-0.5 2.3-1.3c-0.2-0.1-0.2-0.6-0.5-0.6-0.5 0.8-1.2 1.2-1.8 1.9zm-5.2 2.1c0.2 2.8 1.1 4.9 2.2 6.7-0.1-2.9-0.3-5.6-2.2-6.7zm6.7-4.2c-0.8 0-1.8 1-2.4 1.1 0.1-0.2 0.3-0.4 0.3-0.7-0.9 0.3-1.9 1.2-3 1-0.8-0.1-1.1-1-1.7-1.1-0.2 1.9 1.8 2.2 3.1 1.8 0 0.2-0.5 0.3-0.3 0.6 1.8-0.4 3-1.5 4-2.7zm-4 9.9c0.2 1.8 1.1 3 2 3.8-0.8-1.7 0-4.5-0.3-6.5-0.7-0.5-1.3-1.6-2-1.7 0.6 1 0.2 2.9 0.3 4.4zm10.1-6.3c-0.4-0.5-0.9-1-1.2-1.5 0 0.3 0 0.6-0.2 0.7-0.2-1-0.7-1.6-1.3-2.1 0 0.4 0 0.8-0.2 1 0.5 0.3 0.5 1.1 0.8 1.6 0.1-0.1 0-0.6 0.2-0.7 0 1.4 2.4 2.7 3.1 1zm26.1 34.3c3.4 1.5 6.9 2.9 8.9 5.9 0.3 0.4 0.4 0.9 0.6 1.4q0.3 0.7 0.7 1.3v0.1h0.1c1.6-1.2 3.2-2.9 3.9-4.8 0.2-0.3 0.1-0.6 0.1-0.9-0.1-0.4-0.2-0.8 0-1.2 0.1-0.2 0.2-0.3 0.3-0.5l0.1-0.1c0.1-0.3 0-0.8-0.2-1q-0.2-0.2-0.4-0.3c-0.8-0.4-1.6-0.7-2.5-1-0.6-0.3-1.3-0.5-1.9-0.7q-1.3-0.5-2.6-1-1.3-0.5-2.5-1-0.7-0.3-1.3-0.5c-0.6-0.2-1.2-0.6-1.7-0.3-0.7 0.2-1.2 0.9-1.1 1.6 0.1 0.3 2.7 1 3 1.2q1.7 0.6 3.4 1.1c1.7 0.5 3.4 0.6 5.2 1q0.9 0.1 1.7 0.6c-0.4 0.3-0.4 1-0.5 1.6 0 0.6 0 1.2-0.3 1.8-0.5 1-1.4 2.1-2.4 2.7-1.6-4.5-6.3-5.8-10.4-7.7 0 0.4-0.1 0.5-0.2 0.7zm-91.9 38.1q-0.2-1-0.6-1.9c-0.2-0.6-0.6-1.1-0.9-1.7-0.2-0.5-0.5-1-0.8-1.5q-0.3-0.5-0.7-1.1c-0.2-0.2-0.3-0.4-0.2-0.8 0.3-0.7 0.9-1.3 1.5-1.8q1.7-1.4 3.7-2.4c1.4-0.7 2.7-1.1 4.1-1.4q2-0.4 4-0.8c0.6-0.1 1.1-0.2 1.6-0.4q0.6-0.4 1.1-1c0.2-0.4 0.5-1.1 0.4-1.6-0.1-0.4-0.6-0.5-0.9-0.6q-0.5-0.2-1-0.3-0.9-0.2-1.8-0.1c-1.1 0-2.2 0.1-3.2 0.3q-1 0.2-1.9 0.4-0.4 0.1-0.9 0.3c-0.2 0-0.6 0.1-0.8 0.3-0.1 0.2 0.1 0.4 0.3 0.4 0.2 0.1 0.5 0.2 0.7 0.3q0.6 0.4 1 0.9c0.1 0.1 0.1 0.3 0.3 0.4 0.1 0.1 0.2 0.1 0.4 0.1 0.3 0 0.5-0.1 0.8-0.2q0.9-0.2 1.7-0.5c0.5-0.1 1.1-0.2 1.5-0.5 0.3-0.2 0.3-0.7 0.1-1q-0.1-0.1-0.2-0.2l-0.1-0.2-0.2-0.1v-0.1h0.1c0.3-0.1 0.7-0.2 1.1-0.2q0.6 0 1.2 0.1c0.6 0.2 0.8 0.7 0.4 1.3-0.2 0.2-0.5 0.4-0.7 0.6-1.2 0.7-2.4 1-3.7 1.4q-2.1 0.8-4.2 1.3c-2.4 0.6-4.8 0.7-7.2 0.8q-0.1 0-0.3 0.1c-0.3 0-0.7 0-1.1 0q0 0-0.1 0c-0.2 0-0.6 0-0.6-0.1 0.1 0.5 0.5 1 0.8 1.5q0.4 0.8 0.8 1.5 0.4 0.8 0.7 1.6 0.6 1.8 0.9 3.7 0.2 1.2 0.1 2.3 0 0.6 0 1.2-0.1 0.3-0.2 0.6c0 0.1-0.1 0.3 0 0.5 0 0.1 0.1 0.1 0.2 0.2q0.7 0.3 1.5 0.5c0.4 0.1 0.7 0.1 1.1 0.1q0.2-0.1 0.4 0c0.3-0.7 0-1.6-0.2-2.2z"/>
			<path id="Layer" class="s8" d="m73.7 39.3c-2.1-1.3-2.1-5.8-0.8-8q-0.9-1.4-2.3-2.2c-0.5-3.6 0.9-6.1 3.4-7-0.6-0.6-1.5-1-2.7-1.1 1.4-1.5 5-1.2 6.9-0.4-0.1-0.8-0.3-1-0.5-1.5 3.3 0.5 5.1 2.4 7 4.4 0.6-0.1 1.1-0.4 1.6-0.7 0.5-0.2 1-0.6 1.5-0.6-0.1 0-0.1 2.8-0.1 3 0 0.5-0.1 0.9-0.2 1.3v0.2c-0.4 0.8 0 1.5 0 2.5-0.4-0.1-1.1 0-1.6 0.1-0.2-0.1 0-0.5-0.1-0.6-0.5 0-0.6 0.4-1 0.6 0.3 1.9 0.3 4-0.1 6v0.2c-0.4 0.4-0.9 0.2-1.5-0.1-0.5-0.2-1.1-0.4-1.7 0-0.2-0.4-0.2-0.9-0.1-1.4-0.5 0.4-1.5 1.5-0.7 2.3-2 0.7-5.4 2.6-6-0.6-1.2 0.4-1.3 2.2-1 3.6z"/>
			<path id="Layer" class="s8" d="m84.8 98.7c-2.8 1.7-5.6 3.7-8.8 5.2-3.6 1.9-7.5 3.8-12.1 4.2-1.4 0.1-2.6 0-3.6-0.2 3-1.2 5.8-2.6 8.5-4.1-0.7-0.5-1.9-0.3-2.7-0.2-1.2 0.1-2.4 0.4-3.4 0.5 3.8-3.2 11.5-2.5 16.2-4.8-0.7 1.4-2.5 2.4-3.8 3.5 5-1.8 9.3-4.7 13.5-7.6 2-1.4 4-3 6-4.5 2-1.5 4.1-2.9 5.9-4.6 0.1 0 0.1 0.1 0.1 0.2-4.1 4.7-9.8 8.6-15.8 12.4z"/>
			<path id="Layer" class="s8" d="m112.9 70c-1.4 7.2-3.4 13.8-10.8 15 3.3-2.1 5.8-5 7.4-8.7-0.6 0.1-1.1 0.4-1.6 0.6 0.6-1.1 1.8-2.2 1.9-4.2-1.5 1.9-3.9 3.7-6.2 5.1 0.5 0.2 1.4 0.1 1.9 0-0.8 1.9-2.4 3.1-4.4 3.7 0.1 0.5 0.9 0.4 1.5 0.4 0.4 0 0.7-0.1 0.8 0-1 1-2.5 0.6-3.9 1-0.6 0.2-1.3 0.9-2.1 1.4-2.1 1.2-4.6 2.2-6.9 3.3 0.2 0.1 0.7 0.1 1.1 0.1q0.4 0 0.8 0l-0.4 0.3q-0.2 0.1-0.5 0.3-0.4 0.3-0.8 0.5-0.9 0.6-1.8 1.1-2.3 1.4-4.7 2.5-2.5 1.2-5.2 2-2.8 0.9-5.6 1.5-1.5 0.4-3 0.6c-0.5 0.1-1 0.2-1.5 0.2-0.2 0-0.5 0-0.8 0.1q-0.4 0-0.8 0.1-1.7 0.2-3.4 0.2c-0.9 0-1.7-0.1-2.5-0.1-0.2 0-0.6-0.1-0.8 0q0.2 0.2 0.5 0.4c0.8 0.4 1.7 0.6 2.5 0.7q0.7 0.1 1.5 0.2 0.3 0.1 0.7 0.1 0.2 0 0.4 0l0.3 0.1q-1 0.4-2.1 0.6c-2.2 0.4-4.4 0.4-6.5 0.5-0.2 0-0.4 0-0.5-0.2 0-0.2 0.1-0.5 0.1-0.7q0.1-0.6 0.2-1.2 0.4-1.2 1.1-2.1 0.3-0.5 0.7-0.9 0.2-0.2 0.4-0.4l0.4-0.4c1.8 0.2 3.3 0.2 4 0.2 4.5-0.3 7.7-1.9 10.4-3.9-2.9 0.6-7.3 2-11 1 0.8-2 2.6-3.5 4.4-4.7 2.5-1.5 5.5-2.6 8.9-3.1 2.1 0.7 5.6 0.5 8 0.1-0.8 0.9-1.9 1.4-2.7 2.1 1.7-0.1 3.4-1.1 4.9-1.7 1.6-0.6 3.2-1.4 4.7-2.1 0.8-0.4 1.5-0.8 2.3-1 0.2-0.1 2.3-0.5 2.3-0.2 0-0.4-0.5-0.9-0.9-1.2 0.2-3.7 0.9-6.9 1.1-10.5 0.4 0.1 0.5 0.5 0.8 0.8 0.3-1.5-0.7-3.3-0.2-5 0.1-0.6 1.7-2.1 2.1-2.7 0.6-0.8 1.6-2.5 2.3-2.7 1.2-0.2 1.8 0.9 2.6 1.3-0.9 1.5-1.7 3.1-2.8 4.4 2.5 0.6 3-2.2 3.9-3.7 1.4-0.4 2.4 0.4 3 1-0.8 1.6-1.7 3-3 4.2 2.2 0.5 3-2 3.9-3.4 1.2-0.2 2.2 0.4 2.7 1.2-1 1.2-1.2 3.2-2.9 3.7 2 1.5 3-1.2 3.8-2.4 1.2 0.1 2 0.6 2.7 1.3 0 0.9 0 0.9 0 1.8-0.4-0.1-0.4-0.4-0.8-0.4-0.5 0.7-0.8 1.5-1.2 2.3-0.5 0.1-0.4-0.3-0.7-0.4z"/>
			<path id="Layer" class="s11" d="m81 30.7c-0.6 0-1.3-0.3-2.1-0.5-0.7-0.3-1.4-0.6-2.2-0.6q-0.4 0-0.8 0.1c0 0 0.2-0.5 0.3-0.5q0.2-0.4 0.4-0.7c0.3-0.5 0.7-0.9 1.2-1.1q0.2 0 0.3 0c0.4 0 0.7 0.1 1 0.2q0.6 0.2 1.1 0.3c0.5 0.2 1 0.3 1.4 0.4q0.2 0 0.3 0 0.2 0 0.5-0.1h0.1q0.1-0.1 0.3-0.1 0.1 0 0.1 0c0.1 1.1-0.5 2.4-1.4 2.5q-0.2 0.1-0.5 0.1z"/>
			<path id="Layer" fill-rule="evenodd" class="s12" d="m75.3 27.1c-0.2-1.2 0.2-2.8-0.1-4.1q-0.1-0.2 0.1-0.2c1.3 0.8 1.7 3.7 0 4.3z"/>
			<path id="Layer" fill-rule="evenodd" class="s12" d="m87.8 22.7c-0.1 0.7 0 1.3 0 1.9-0.1 0.6 0 1.1-0.2 1.7-0.2 0.5-0.3 1.2-0.2 1.7l-0.5 0.1c-0.2 0-0.4 0-0.5 0.2-0.4-0.2-0.4-0.7-0.7-1-0.6 0.8-2.2 0.9-2.4-0.3-0.9 0.5-2.6 0.4-3.5-0.3-0.2-1.6-0.9-3.1-1-4.5 2.6-0.2 4.3 1.2 6.1 2.1 1.2-0.2 1.9-1.4 2.9-1.6z"/>
			<path id="Layer" fill-rule="evenodd" class="s12" d="m84.7 35.3v0.2c-0.9-0.3-1.8-0.7-2.9-0.8 0-0.3 0.2-0.3 0.1-0.6 0.4-0.3 1-0.1 1.4 0 0.4-1.3 0.6-2.8 0.6-4.5 0.2 0 0.7 0.2 0.8 0 0.4 1.5 0.1 3.9 0 5.7z"/>
			<path id="Layer" fill-rule="evenodd" class="s12" d="m80.7 31.4c-0.1 1.3-0.9 2-1.7 2.6-0.8-0.9-1.4-2-2.4-2.6 1-0.9 2.9-0.5 4.1 0z"/>
			<path id="Layer" class="s11" d="m100.8 73.6l0.1-0.5q0-0.4 0-0.7 0-0.7 0.1-1.3v-0.1q0.1-0.5 0.1-0.9l0.2-0.9c1.1-0.1 1.9-0.9 2.3-1.5 0.4 0.4 0.1 1.9-0.1 2.5-0.3 0.3-0.8 0.4-1.2 0.5-0.2 0.1-0.4 0.1-0.6 0.2-0.2 0.2-0.3 0.5-0.3 0.7-0.1 0.3-0.1 0.6-0.1 0.9q-0.1 0.4-0.2 0.7c-0.1 0.1-0.1 0.4-0.3 0.4z"/>
			<path id="Layer" class="s11" d="m98.4 70.7c-0.2-1.2-0.3-2.5-0.3-4 0.4-0.5 0.8-1.1 1.3-1.6 0.2 2.1-0.4 4-1 5.6z"/>
			<path id="Layer" class="s11" d="m104.6 73.2c0.4-1.8 2.1-2.3 3.2-3.5 0 1.9-1.5 3-3.2 3.5z"/>
			<path id="Layer" fill-rule="evenodd" class="s12" d="m103.2 60.3c-1.7 1.5-2.4 4.1-5 4.7 0.2-0.8 0.8-1.7 1.4-2.5 0.6-0.8 1.2-1.6 1.7-2.4 0.1-0.1 0.3 0 0.3-0.2 0.8-0.1 1.2 0.2 1.6 0.4z"/>
			<path id="Layer" fill-rule="evenodd" class="s12" d="m103.2 66.6c-0.2 1-1.3 1.1-2.2 1.5-0.2-0.3-0.2-0.8-0.2-1.4 0.6-0.3 1.6-0.2 2.4-0.1z"/>
			<path id="Layer" fill-rule="evenodd" class="s12" d="m107.2 68.9c-0.4 0.8-1.2 1.2-2.3 1.4 0-0.5-0.2-0.8-0.1-1.3 0.7-0.2 1.6-0.3 2.4-0.1z"/>
			<path id="Layer" fill-rule="evenodd" class="s12" d="m82 84.4c-2.3 1.9-6.3 2.5-10.5 2.2 2.5-1.7 6.1-2.4 10.5-2.2z"/>
			<path id="Layer" fill-rule="evenodd" class="s12" d="m89.3 84q0.7-0.4 1.5-0.7c1.4-0.6 2.9-1.3 4.2-2.1 0.7-0.1 1.1 0.2 1.7 0.3-1.8 1.2-3.7 2-5.7 2.8q-1.4 0.7-2.9 1.3c-0.8 0.3-1.4 0.8-2.2 1-2 0.4-3.9 1.2-5.8 2 1-1.4 2.8-2.2 4.4-2.8 0.8-0.4 1.6-0.7 2.4-0.9 0.8-0.2 1.6-0.5 2.4-0.9z"/>
			<path id="Layer" class="s8" d="m85.8 31.4c0.4 0.3 1 0.3 1.4 0.6q0 0.7 0 1.3c0.1 0.8 0.1 1.6-0.1 2.5-0.1 0.2-0.7 2.2-0.9 2.1-0.6-0.2-1-0.6-1.5-1 0.3-0.4 0.7-0.5 1-0.8 0.2-1.4 0.1-3.2 0.1-4.7z"/>
			<path id="Layer" class="s8" d="m78.6 41.2c0.8-0.2 1.6-0.3 2.3-0.4q0.6-0.1 1.2-0.4 0.2-0.1 0.4-0.2l0.4-0.3c0.7 0.4 1.4 0.7 1.3 1.9 0-0.1-0.8-0.2-0.9-0.2q-0.5-0.1-1.1-0.1-0.8 0-1.7 0.1-0.4 0-0.8-0.1-0.4-0.1-0.7-0.2-0.2-0.1-0.4-0.1z"/>
			<path id="Layer" class="s8" d="m66.3 28.2c-0.3 0.1-0.5 0.2-0.6 0.5 0.1 0.3 0.3-0.1 0.5 0-0.4 0.7-1 1.6-0.5 2.7 0.2-0.7 0.2-1.5 0.7-1.8 0.5 0.6-0.3 1.3 0 2 0.3-0.2 0.2-0.7 0.7-0.6 0.2 0.9-0.3 1.5-1.1 1.6 0.2 0.9 0.7 1.6 1.7 1.8-0.1 0.1-0.1 0.3-0.1 0.5 0 0.2-1.3-0.6-1.4-0.7-0.5-0.4-0.7-1-0.9-1.6-0.2-0.6-0.5-1.4-0.5-2.2-0.1-0.7 0-1.3 0.2-1.9 0.1-0.2 1-1.4 1.3-1.2 1 0.5 1.5 1.6 2.1 2.4 0.1 1.4-0.1 2.4-0.3 3.6-0.2 0-0.3-0.1-0.5-0.1 0.5-1.9-0.4-3.8-1.3-5z"/>
			<path id="Layer" class="s0" d="m50 125.5v-0.7l-0.1-0.1c-0.4 0.3-1.2 0.7-2.4 0.4-1-0.2-4-1.2-3-5.5 0.6-2.8 2.7-4.2 5-3.6 2.6 0.6 3.6 2.6 3.2 4.4l-3-0.7c0.2-0.8 0.3-1.8-0.6-2-1.1-0.2-1.4 1-1.6 2.1l-0.2 0.9c-0.3 1.3-0.6 2.4 0.6 2.7 0.5 0.1 1.3-0.1 1.4-0.5v-0.3c0-0.1 0-0.3-0.4-0.3l-0.3-0.1 0.4-1.6 4.1 0.9-0.3 1.6c-0.5-0.1-0.6 0.2-0.7 0.6l-0.5 2.1z"/>
			<path id="Layer" fill-rule="evenodd" class="s0" d="m61.6 118.3c2.9 0.4 3.1 2 2.9 3.1-0.1 0.8-0.6 1.5-1.4 1.8l0.6 1.3c0.2 0.7 0.4 1.4 1 1.6l-0.2 1.6-4.1-0.5 0.2-1.6c0.3 0 0.5 0 0.5-0.3 0.1-0.1 0-0.3-0.1-0.6l-0.4-1-0.7-0.1-0.2 1.3c0 0.3 0 0.6 0.4 0.6l-0.2 1.6-3.8-0.5 0.2-1.6 0.3 0.1c0.4 0 0.5 0 0.6-0.7l0.5-4.2c0.1-0.5 0.1-0.7-0.3-0.8h-0.4l0.2-1.6zm-1.5 3.5h0.3c0.7 0.1 1.1-0.3 1.1-0.9 0.2-0.8-0.5-0.9-0.9-1h-0.3z"/>
			<path id="Layer" fill-rule="evenodd" class="s0" d="m75.7 120.6c0.7 1.1 0.8 2.4 0.8 3.1 0 1.1-0.3 2.3-0.9 3.1-0.6 0.8-1.7 1.5-3.3 1.5-1.9-0.1-2.9-1-3.3-1.7-0.9-1.2-0.8-2.8-0.8-3.1 0-0.7 0.1-1.9 1-3 0.8-1.2 2.1-1.6 3.2-1.6 1.9 0 2.9 1 3.3 1.7zm-4.5 2.5v0.9c0 1.2 0 2.5 1.1 2.5 1.1 0 1.2-1.2 1.2-2.5v-0.8c0-1.2 0-2.5-1.1-2.5-1.1 0-1.2 1.4-1.2 2.4z"/>
			<path id="Layer" class="s0" d="m84.1 120.3h-0.4c-0.4 0.1-0.4 0.3-0.4 0.6l0.3 2.8c0.2 1.4 0.3 2.4 1.6 2.2 1-0.1 1-0.9 0.9-2.5l-0.3-2.8c-0.1-0.3-0.1-0.5-0.5-0.4h-0.4l-0.2-1.6 3.4-0.4 0.2 1.6-0.4 0.1c-0.4 0-0.4 0.2-0.3 0.7l0.3 3.6c0.1 0.8 0.2 3.2-2.6 3.5-3.7 0.4-4.1-1.8-4.3-3.7l-0.3-2.8c-0.1-0.2 0-0.6-0.5-0.5h-0.4l-0.2-1.6 4.3-0.4z"/>
			<path id="Layer" fill-rule="evenodd" class="s0" d="m96.2 123.4c0.1 0.5 0.3 0.4 0.6 0.4l0.5-0.1 0.4 1.6-4.5 1.1-0.4-1.6 0.5-0.2c0.3 0 0.4-0.1 0.3-0.6l-1.1-4.5c-0.1-0.4-0.3-0.4-0.5-0.3l-0.5 0.1-0.4-1.6 3.3-0.9c2.8-0.6 4.5-0.4 5.1 1.9 0.6 2.4-1.4 3.2-3.5 3.7zm-0.7-2.8c0.9-0.2 1.3-0.6 1.1-1.4-0.2-0.8-0.8-1-1.6-0.7z"/>
		</g>
	</g>
</svg>